<svg xmlns="http://www.w3.org/2000/svg" width="1260" height="940" viewBox="0 0 1260 940"><rect width="100%" height="100%" fill="white"/><line x1="170.0" y1="100.0" x2="170.0" y2="140.0" stroke="#111" stroke-width="2"/><line x1="186.0" y1="140.0" x2="170.0" y2="140.0" stroke="#111" stroke-width="2"/><circle cx="170.0" cy="140.0" r="3" fill="#111"/><line x1="420.0" y1="160.0" x2="420.0" y2="200.0" stroke="#111" stroke-width="2"/><line x1="436.0" y1="200.0" x2="420.0" y2="200.0" stroke="#111" stroke-width="2"/><circle cx="420.0" cy="200.0" r="3" fill="#111"/><line x1="670.0" y1="220.0" x2="670.0" y2="260.0" stroke="#111" stroke-width="2"/><line x1="686.0" y1="260.0" x2="670.0" y2="260.0" stroke="#111" stroke-width="2"/><circle cx="670.0" cy="260.0" r="3" fill="#111"/><line x1="90.0" y1="140.0" x2="90.0" y2="398.0" stroke="#111" stroke-width="2"/><line x1="170.0" y1="172.0" x2="90.0" y2="172.0" stroke="#111" stroke-width="2"/><circle cx="90.0" cy="172.0" r="3" fill="#111"/><line x1="132.0" y1="140.0" x2="90.0" y2="140.0" stroke="#111" stroke-width="2"/><circle cx="90.0" cy="140.0" r="3" fill="#111"/><line x1="382.0" y1="200.0" x2="90.0" y2="200.0" stroke="#111" stroke-width="2"/><circle cx="90.0" cy="200.0" r="3" fill="#111"/><line x1="632.0" y1="260.0" x2="90.0" y2="260.0" stroke="#111" stroke-width="2"/><circle cx="90.0" cy="260.0" r="3" fill="#111"/><line x1="170.0" y1="398.0" x2="90.0" y2="398.0" stroke="#111" stroke-width="2"/><circle cx="90.0" cy="398.0" r="3" fill="#111"/><line x1="300.0" y1="232.0" x2="300.0" y2="430.0" stroke="#111" stroke-width="2"/><line x1="420.0" y1="232.0" x2="300.0" y2="232.0" stroke="#111" stroke-width="2"/><circle cx="300.0" cy="232.0" r="3" fill="#111"/><line x1="420.0" y1="328.0" x2="300.0" y2="328.0" stroke="#111" stroke-width="2"/><circle cx="300.0" cy="328.0" r="3" fill="#111"/><line x1="458.0" y1="360.0" x2="300.0" y2="360.0" stroke="#111" stroke-width="2"/><circle cx="300.0" cy="360.0" r="3" fill="#111"/><line x1="208.0" y1="430.0" x2="300.0" y2="430.0" stroke="#111" stroke-width="2"/><circle cx="300.0" cy="430.0" r="3" fill="#111"/><line x1="170.0" y1="462.0" x2="170.0" y2="498.0" stroke="#111" stroke-width="2"/><line x1="545.0" y1="292.0" x2="545.0" y2="785.0" stroke="#111" stroke-width="2"/><line x1="670.0" y1="292.0" x2="545.0" y2="292.0" stroke="#111" stroke-width="2"/><circle cx="545.0" cy="292.0" r="3" fill="#111"/><line x1="670.0" y1="498.0" x2="545.0" y2="498.0" stroke="#111" stroke-width="2"/><circle cx="545.0" cy="498.0" r="3" fill="#111"/><line x1="632.0" y1="530.0" x2="545.0" y2="530.0" stroke="#111" stroke-width="2"/><circle cx="545.0" cy="530.0" r="3" fill="#111"/><line x1="632.0" y1="615.0" x2="545.0" y2="615.0" stroke="#111" stroke-width="2"/><circle cx="545.0" cy="615.0" r="3" fill="#111"/><line x1="632.0" y1="700.0" x2="545.0" y2="700.0" stroke="#111" stroke-width="2"/><circle cx="545.0" cy="700.0" r="3" fill="#111"/><line x1="632.0" y1="785.0" x2="545.0" y2="785.0" stroke="#111" stroke-width="2"/><circle cx="545.0" cy="785.0" r="3" fill="#111"/><line x1="208.0" y1="530.0" x2="545.0" y2="530.0" stroke="#111" stroke-width="2"/><circle cx="545.0" cy="530.0" r="3" fill="#111"/><line x1="208.0" y1="615.0" x2="545.0" y2="615.0" stroke="#111" stroke-width="2"/><circle cx="545.0" cy="615.0" r="3" fill="#111"/><line x1="208.0" y1="700.0" x2="545.0" y2="700.0" stroke="#111" stroke-width="2"/><circle cx="545.0" cy="700.0" r="3" fill="#111"/><line x1="208.0" y1="785.0" x2="545.0" y2="785.0" stroke="#111" stroke-width="2"/><circle cx="545.0" cy="785.0" r="3" fill="#111"/><line x1="670.0" y1="562.0" x2="670.0" y2="583.0" stroke="#111" stroke-width="2"/><line x1="670.0" y1="647.0" x2="670.0" y2="668.0" stroke="#111" stroke-width="2"/><line x1="670.0" y1="732.0" x2="670.0" y2="753.0" stroke="#111" stroke-width="2"/><line x1="170.0" y1="562.0" x2="170.0" y2="583.0" stroke="#111" stroke-width="2"/><line x1="170.0" y1="647.0" x2="170.0" y2="668.0" stroke="#111" stroke-width="2"/><line x1="170.0" y1="732.0" x2="170.0" y2="753.0" stroke="#111" stroke-width="2"/><line x1="420.0" y1="360.0" x2="420.0" y2="424.0" stroke="#111" stroke-width="2"/><line x1="404.0" y1="360.0" x2="420.0" y2="360.0" stroke="#111" stroke-width="2"/><circle cx="420.0" cy="360.0" r="3" fill="#111"/><line x1="170.0" y1="785.0" x2="170.0" y2="849.0" stroke="#111" stroke-width="2"/><line x1="154.0" y1="785.0" x2="170.0" y2="785.0" stroke="#111" stroke-width="2"/><circle cx="170.0" cy="785.0" r="3" fill="#111"/><line x1="670.0" y1="785.0" x2="670.0" y2="849.0" stroke="#111" stroke-width="2"/><line x1="686.0" y1="785.0" x2="670.0" y2="785.0" stroke="#111" stroke-width="2"/><circle cx="670.0" cy="785.0" r="3" fill="#111"/><line x1="154.0" y1="430.0" x2="154.0" y2="430.0" stroke="#111" stroke-width="2"/><line x1="60.0" y1="430.0" x2="154.0" y2="430.0" stroke="#111" stroke-width="2"/><circle cx="154.0" cy="430.0" r="3" fill="#111"/><line x1="154.0" y1="530.0" x2="154.0" y2="530.0" stroke="#111" stroke-width="2"/><line x1="60.0" y1="530.0" x2="154.0" y2="530.0" stroke="#111" stroke-width="2"/><circle cx="154.0" cy="530.0" r="3" fill="#111"/><line x1="154.0" y1="615.0" x2="154.0" y2="615.0" stroke="#111" stroke-width="2"/><line x1="60.0" y1="615.0" x2="154.0" y2="615.0" stroke="#111" stroke-width="2"/><circle cx="154.0" cy="615.0" r="3" fill="#111"/><line x1="154.0" y1="700.0" x2="154.0" y2="700.0" stroke="#111" stroke-width="2"/><line x1="60.0" y1="700.0" x2="154.0" y2="700.0" stroke="#111" stroke-width="2"/><circle cx="154.0" cy="700.0" r="3" fill="#111"/><line x1="686.0" y1="530.0" x2="686.0" y2="530.0" stroke="#111" stroke-width="2"/><line x1="730.0" y1="530.0" x2="686.0" y2="530.0" stroke="#111" stroke-width="2"/><circle cx="686.0" cy="530.0" r="3" fill="#111"/><line x1="686.0" y1="615.0" x2="686.0" y2="615.0" stroke="#111" stroke-width="2"/><line x1="730.0" y1="615.0" x2="686.0" y2="615.0" stroke="#111" stroke-width="2"/><circle cx="686.0" cy="615.0" r="3" fill="#111"/><line x1="686.0" y1="700.0" x2="686.0" y2="700.0" stroke="#111" stroke-width="2"/><line x1="730.0" y1="700.0" x2="686.0" y2="700.0" stroke="#111" stroke-width="2"/><circle cx="686.0" cy="700.0" r="3" fill="#111"/><line x1="132.0" y1="140.0" x2="159.0" y2="140.0" stroke="#111" stroke-width="2"/><line x1="159.0" y1="124.0" x2="159.0" y2="156.0" stroke="#111" stroke-width="2"/><line x1="166.0" y1="124.0" x2="166.0" y2="133.0" stroke="#111" stroke-width="2"/><line x1="166.0" y1="135.5" x2="166.0" y2="144.5" stroke="#111" stroke-width="2"/><line x1="166.0" y1="147.0" x2="166.0" y2="156.0" stroke="#111" stroke-width="2"/><line x1="166.0" y1="156.0" x2="170.0" y2="156.0" stroke="#111" stroke-width="2"/><line x1="170.0" y1="156.0" x2="170.0" y2="172.0" stroke="#111" stroke-width="2"/><line x1="166.0" y1="124.0" x2="170.0" y2="124.0" stroke="#111" stroke-width="2"/><line x1="170.0" y1="124.0" x2="170.0" y2="108.0" stroke="#111" stroke-width="2"/><line x1="166.0" y1="140.0" x2="186.0" y2="140.0" stroke="#111" stroke-width="2"/><polygon points="166.5,140.0 157.5,136.0 157.5,144.0" fill="#111"/><text x="190.0" y="144.0" font-size="13" font-family="Georgia,serif" font-style="italic" text-anchor="start">M12 ×1</text><line x1="382.0" y1="200.0" x2="409.0" y2="200.0" stroke="#111" stroke-width="2"/><line x1="409.0" y1="184.0" x2="409.0" y2="216.0" stroke="#111" stroke-width="2"/><line x1="416.0" y1="184.0" x2="416.0" y2="193.0" stroke="#111" stroke-width="2"/><line x1="416.0" y1="195.5" x2="416.0" y2="204.5" stroke="#111" stroke-width="2"/><line x1="416.0" y1="207.0" x2="416.0" y2="216.0" stroke="#111" stroke-width="2"/><line x1="416.0" y1="216.0" x2="420.0" y2="216.0" stroke="#111" stroke-width="2"/><line x1="420.0" y1="216.0" x2="420.0" y2="232.0" stroke="#111" stroke-width="2"/><line x1="416.0" y1="184.0" x2="420.0" y2="184.0" stroke="#111" stroke-width="2"/><line x1="420.0" y1="184.0" x2="420.0" y2="168.0" stroke="#111" stroke-width="2"/><line x1="416.0" y1="200.0" x2="436.0" y2="200.0" stroke="#111" stroke-width="2"/><polygon points="416.5,200.0 407.5,196.0 407.5,204.0" fill="#111"/><text x="440.0" y="204.0" font-size="13" font-family="Georgia,serif" font-style="italic" text-anchor="start">M13 ×4</text><line x1="632.0" y1="260.0" x2="659.0" y2="260.0" stroke="#111" stroke-width="2"/><line x1="659.0" y1="244.0" x2="659.0" y2="276.0" stroke="#111" stroke-width="2"/><line x1="666.0" y1="244.0" x2="666.0" y2="253.0" stroke="#111" stroke-width="2"/><line x1="666.0" y1="255.5" x2="666.0" y2="264.5" stroke="#111" stroke-width="2"/><line x1="666.0" y1="267.0" x2="666.0" y2="276.0" stroke="#111" stroke-width="2"/><line x1="666.0" y1="276.0" x2="670.0" y2="276.0" stroke="#111" stroke-width="2"/><line x1="670.0" y1="276.0" x2="670.0" y2="292.0" stroke="#111" stroke-width="2"/><line x1="666.0" y1="244.0" x2="670.0" y2="244.0" stroke="#111" stroke-width="2"/><line x1="670.0" y1="244.0" x2="670.0" y2="228.0" stroke="#111" stroke-width="2"/><line x1="666.0" y1="260.0" x2="686.0" y2="260.0" stroke="#111" stroke-width="2"/><polygon points="666.5,260.0 657.5,256.0 657.5,264.0" fill="#111"/><text x="690.0" y="264.0" font-size="13" font-family="Georgia,serif" font-style="italic" text-anchor="start">M14 ×2</text><line x1="458.0" y1="360.0" x2="431.0" y2="360.0" stroke="#111" stroke-width="2"/><line x1="431.0" y1="344.0" x2="431.0" y2="376.0" stroke="#111" stroke-width="2"/><line x1="424.0" y1="344.0" x2="424.0" y2="353.0" stroke="#111" stroke-width="2"/><line x1="424.0" y1="355.5" x2="424.0" y2="364.5" stroke="#111" stroke-width="2"/><line x1="424.0" y1="367.0" x2="424.0" y2="376.0" stroke="#111" stroke-width="2"/><line x1="424.0" y1="344.0" x2="420.0" y2="344.0" stroke="#111" stroke-width="2"/><line x1="420.0" y1="344.0" x2="420.0" y2="328.0" stroke="#111" stroke-width="2"/><line x1="424.0" y1="376.0" x2="420.0" y2="376.0" stroke="#111" stroke-width="2"/><line x1="420.0" y1="376.0" x2="420.0" y2="392.0" stroke="#111" stroke-width="2"/><line x1="424.0" y1="360.0" x2="404.0" y2="360.0" stroke="#111" stroke-width="2"/><polygon points="423.5,360.0 414.5,356.0 414.5,364.0" fill="#111"/><text x="400.0" y="364.0" font-size="13" font-family="Georgia,serif" font-style="italic" text-anchor="end">M11 ×1</text><line x1="208.0" y1="430.0" x2="181.0" y2="430.0" stroke="#111" stroke-width="2"/><line x1="181.0" y1="414.0" x2="181.0" y2="446.0" stroke="#111" stroke-width="2"/><line x1="174.0" y1="414.0" x2="174.0" y2="423.0" stroke="#111" stroke-width="2"/><line x1="174.0" y1="425.5" x2="174.0" y2="434.5" stroke="#111" stroke-width="2"/><line x1="174.0" y1="437.0" x2="174.0" y2="446.0" stroke="#111" stroke-width="2"/><line x1="174.0" y1="414.0" x2="170.0" y2="414.0" stroke="#111" stroke-width="2"/><line x1="170.0" y1="414.0" x2="170.0" y2="398.0" stroke="#111" stroke-width="2"/><line x1="174.0" y1="446.0" x2="170.0" y2="446.0" stroke="#111" stroke-width="2"/><line x1="170.0" y1="446.0" x2="170.0" y2="462.0" stroke="#111" stroke-width="2"/><line x1="174.0" y1="430.0" x2="154.0" y2="430.0" stroke="#111" stroke-width="2"/><polygon points="173.5,430.0 164.5,426.0 164.5,434.0" fill="#111"/><text x="150.0" y="434.0" font-size="13" font-family="Georgia,serif" font-style="italic" text-anchor="end">M10 ×4</text><line x1="208.0" y1="530.0" x2="181.0" y2="530.0" stroke="#111" stroke-width="2"/><line x1="181.0" y1="514.0" x2="181.0" y2="546.0" stroke="#111" stroke-width="2"/><line x1="174.0" y1="514.0" x2="174.0" y2="523.0" stroke="#111" stroke-width="2"/><line x1="174.0" y1="525.5" x2="174.0" y2="534.5" stroke="#111" stroke-width="2"/><line x1="174.0" y1="537.0" x2="174.0" y2="546.0" stroke="#111" stroke-width="2"/><line x1="174.0" y1="514.0" x2="170.0" y2="514.0" stroke="#111" stroke-width="2"/><line x1="170.0" y1="514.0" x2="170.0" y2="498.0" stroke="#111" stroke-width="2"/><line x1="174.0" y1="546.0" x2="170.0" y2="546.0" stroke="#111" stroke-width="2"/><line x1="170.0" y1="546.0" x2="170.0" y2="562.0" stroke="#111" stroke-width="2"/><line x1="174.0" y1="530.0" x2="154.0" y2="530.0" stroke="#111" stroke-width="2"/><polygon points="173.5,530.0 164.5,526.0 164.5,534.0" fill="#111"/><text x="150.0" y="534.0" font-size="13" font-family="Georgia,serif" font-style="italic" text-anchor="end">M16</text><line x1="208.0" y1="615.0" x2="181.0" y2="615.0" stroke="#111" stroke-width="2"/><line x1="181.0" y1="599.0" x2="181.0" y2="631.0" stroke="#111" stroke-width="2"/><line x1="174.0" y1="599.0" x2="174.0" y2="608.0" stroke="#111" stroke-width="2"/><line x1="174.0" y1="610.5" x2="174.0" y2="619.5" stroke="#111" stroke-width="2"/><line x1="174.0" y1="622.0" x2="174.0" y2="631.0" stroke="#111" stroke-width="2"/><line x1="174.0" y1="599.0" x2="170.0" y2="599.0" stroke="#111" stroke-width="2"/><line x1="170.0" y1="599.0" x2="170.0" y2="583.0" stroke="#111" stroke-width="2"/><line x1="174.0" y1="631.0" x2="170.0" y2="631.0" stroke="#111" stroke-width="2"/><line x1="170.0" y1="631.0" x2="170.0" y2="647.0" stroke="#111" stroke-width="2"/><line x1="174.0" y1="615.0" x2="154.0" y2="615.0" stroke="#111" stroke-width="2"/><polygon points="173.5,615.0 164.5,611.0 164.5,619.0" fill="#111"/><text x="150.0" y="619.0" font-size="13" font-family="Georgia,serif" font-style="italic" text-anchor="end">M18</text><line x1="208.0" y1="700.0" x2="181.0" y2="700.0" stroke="#111" stroke-width="2"/><line x1="181.0" y1="684.0" x2="181.0" y2="716.0" stroke="#111" stroke-width="2"/><line x1="174.0" y1="684.0" x2="174.0" y2="693.0" stroke="#111" stroke-width="2"/><line x1="174.0" y1="695.5" x2="174.0" y2="704.5" stroke="#111" stroke-width="2"/><line x1="174.0" y1="707.0" x2="174.0" y2="716.0" stroke="#111" stroke-width="2"/><line x1="174.0" y1="684.0" x2="170.0" y2="684.0" stroke="#111" stroke-width="2"/><line x1="170.0" y1="684.0" x2="170.0" y2="668.0" stroke="#111" stroke-width="2"/><line x1="174.0" y1="716.0" x2="170.0" y2="716.0" stroke="#111" stroke-width="2"/><line x1="170.0" y1="716.0" x2="170.0" y2="732.0" stroke="#111" stroke-width="2"/><line x1="174.0" y1="700.0" x2="154.0" y2="700.0" stroke="#111" stroke-width="2"/><polygon points="173.5,700.0 164.5,696.0 164.5,704.0" fill="#111"/><text x="150.0" y="704.0" font-size="13" font-family="Georgia,serif" font-style="italic" text-anchor="end">M20</text><line x1="208.0" y1="785.0" x2="181.0" y2="785.0" stroke="#111" stroke-width="2"/><line x1="181.0" y1="769.0" x2="181.0" y2="801.0" stroke="#111" stroke-width="2"/><line x1="174.0" y1="769.0" x2="174.0" y2="778.0" stroke="#111" stroke-width="2"/><line x1="174.0" y1="780.5" x2="174.0" y2="789.5" stroke="#111" stroke-width="2"/><line x1="174.0" y1="792.0" x2="174.0" y2="801.0" stroke="#111" stroke-width="2"/><line x1="174.0" y1="769.0" x2="170.0" y2="769.0" stroke="#111" stroke-width="2"/><line x1="170.0" y1="769.0" x2="170.0" y2="753.0" stroke="#111" stroke-width="2"/><line x1="174.0" y1="801.0" x2="170.0" y2="801.0" stroke="#111" stroke-width="2"/><line x1="170.0" y1="801.0" x2="170.0" y2="817.0" stroke="#111" stroke-width="2"/><line x1="174.0" y1="785.0" x2="154.0" y2="785.0" stroke="#111" stroke-width="2"/><polygon points="173.5,785.0 164.5,781.0 164.5,789.0" fill="#111"/><text x="150.0" y="789.0" font-size="13" font-family="Georgia,serif" font-style="italic" text-anchor="end">M22</text><line x1="632.0" y1="530.0" x2="659.0" y2="530.0" stroke="#111" stroke-width="2"/><line x1="659.0" y1="514.0" x2="659.0" y2="546.0" stroke="#111" stroke-width="2"/><line x1="666.0" y1="514.0" x2="666.0" y2="523.0" stroke="#111" stroke-width="2"/><line x1="666.0" y1="525.5" x2="666.0" y2="534.5" stroke="#111" stroke-width="2"/><line x1="666.0" y1="537.0" x2="666.0" y2="546.0" stroke="#111" stroke-width="2"/><line x1="666.0" y1="514.0" x2="670.0" y2="514.0" stroke="#111" stroke-width="2"/><line x1="670.0" y1="514.0" x2="670.0" y2="498.0" stroke="#111" stroke-width="2"/><line x1="666.0" y1="546.0" x2="670.0" y2="546.0" stroke="#111" stroke-width="2"/><line x1="670.0" y1="546.0" x2="670.0" y2="562.0" stroke="#111" stroke-width="2"/><line x1="666.0" y1="530.0" x2="686.0" y2="530.0" stroke="#111" stroke-width="2"/><polygon points="666.5,530.0 675.5,526.0 675.5,534.0" fill="#111"/><text x="690.0" y="534.0" font-size="13" font-family="Georgia,serif" font-style="italic" text-anchor="start">M15</text><line x1="632.0" y1="615.0" x2="659.0" y2="615.0" stroke="#111" stroke-width="2"/><line x1="659.0" y1="599.0" x2="659.0" y2="631.0" stroke="#111" stroke-width="2"/><line x1="666.0" y1="599.0" x2="666.0" y2="608.0" stroke="#111" stroke-width="2"/><line x1="666.0" y1="610.5" x2="666.0" y2="619.5" stroke="#111" stroke-width="2"/><line x1="666.0" y1="622.0" x2="666.0" y2="631.0" stroke="#111" stroke-width="2"/><line x1="666.0" y1="599.0" x2="670.0" y2="599.0" stroke="#111" stroke-width="2"/><line x1="670.0" y1="599.0" x2="670.0" y2="583.0" stroke="#111" stroke-width="2"/><line x1="666.0" y1="631.0" x2="670.0" y2="631.0" stroke="#111" stroke-width="2"/><line x1="670.0" y1="631.0" x2="670.0" y2="647.0" stroke="#111" stroke-width="2"/><line x1="666.0" y1="615.0" x2="686.0" y2="615.0" stroke="#111" stroke-width="2"/><polygon points="666.5,615.0 675.5,611.0 675.5,619.0" fill="#111"/><text x="690.0" y="619.0" font-size="13" font-family="Georgia,serif" font-style="italic" text-anchor="start">M17</text><line x1="632.0" y1="700.0" x2="659.0" y2="700.0" stroke="#111" stroke-width="2"/><line x1="659.0" y1="684.0" x2="659.0" y2="716.0" stroke="#111" stroke-width="2"/><line x1="666.0" y1="684.0" x2="666.0" y2="693.0" stroke="#111" stroke-width="2"/><line x1="666.0" y1="695.5" x2="666.0" y2="704.5" stroke="#111" stroke-width="2"/><line x1="666.0" y1="707.0" x2="666.0" y2="716.0" stroke="#111" stroke-width="2"/><line x1="666.0" y1="684.0" x2="670.0" y2="684.0" stroke="#111" stroke-width="2"/><line x1="670.0" y1="684.0" x2="670.0" y2="668.0" stroke="#111" stroke-width="2"/><line x1="666.0" y1="716.0" x2="670.0" y2="716.0" stroke="#111" stroke-width="2"/><line x1="670.0" y1="716.0" x2="670.0" y2="732.0" stroke="#111" stroke-width="2"/><line x1="666.0" y1="700.0" x2="686.0" y2="700.0" stroke="#111" stroke-width="2"/><polygon points="666.5,700.0 675.5,696.0 675.5,704.0" fill="#111"/><text x="690.0" y="704.0" font-size="13" font-family="Georgia,serif" font-style="italic" text-anchor="start">M19</text><line x1="632.0" y1="785.0" x2="659.0" y2="785.0" stroke="#111" stroke-width="2"/><line x1="659.0" y1="769.0" x2="659.0" y2="801.0" stroke="#111" stroke-width="2"/><line x1="666.0" y1="769.0" x2="666.0" y2="778.0" stroke="#111" stroke-width="2"/><line x1="666.0" y1="780.5" x2="666.0" y2="789.5" stroke="#111" stroke-width="2"/><line x1="666.0" y1="792.0" x2="666.0" y2="801.0" stroke="#111" stroke-width="2"/><line x1="666.0" y1="769.0" x2="670.0" y2="769.0" stroke="#111" stroke-width="2"/><line x1="670.0" y1="769.0" x2="670.0" y2="753.0" stroke="#111" stroke-width="2"/><line x1="666.0" y1="801.0" x2="670.0" y2="801.0" stroke="#111" stroke-width="2"/><line x1="670.0" y1="801.0" x2="670.0" y2="817.0" stroke="#111" stroke-width="2"/><line x1="666.0" y1="785.0" x2="686.0" y2="785.0" stroke="#111" stroke-width="2"/><polygon points="666.5,785.0 675.5,781.0 675.5,789.0" fill="#111"/><text x="690.0" y="789.0" font-size="13" font-family="Georgia,serif" font-style="italic" text-anchor="start">M21</text><line x1="170" y1="100" x2="170" y2="90" stroke="#111" stroke-width="2"/><line x1="156" y1="90" x2="184" y2="90" stroke="#111" stroke-width="2"/><text x="170" y="84" font-size="12" font-family="Georgia,serif" font-weight="bold" text-anchor="middle">VDD</text><line x1="420" y1="160" x2="420" y2="150" stroke="#111" stroke-width="2"/><line x1="406" y1="150" x2="434" y2="150" stroke="#111" stroke-width="2"/><text x="420" y="144" font-size="12" font-family="Georgia,serif" font-weight="bold" text-anchor="middle">VDD</text><line x1="670" y1="220" x2="670" y2="210" stroke="#111" stroke-width="2"/><line x1="656" y1="210" x2="684" y2="210" stroke="#111" stroke-width="2"/><text x="670" y="204" font-size="12" font-family="Georgia,serif" font-weight="bold" text-anchor="middle">VDD</text><line x1="420" y1="424" x2="420" y2="434" stroke="#111" stroke-width="2"/><line x1="412.0" y1="434" x2="428.0" y2="434" stroke="#111" stroke-width="2"/><line x1="415.0" y1="438" x2="425.0" y2="438" stroke="#111" stroke-width="2"/><line x1="418.0" y1="442" x2="422.0" y2="442" stroke="#111" stroke-width="2"/><line x1="170" y1="849" x2="170" y2="859" stroke="#111" stroke-width="2"/><line x1="162.0" y1="859" x2="178.0" y2="859" stroke="#111" stroke-width="2"/><line x1="165.0" y1="863" x2="175.0" y2="863" stroke="#111" stroke-width="2"/><line x1="168.0" y1="867" x2="172.0" y2="867" stroke="#111" stroke-width="2"/><line x1="670" y1="849" x2="670" y2="859" stroke="#111" stroke-width="2"/><line x1="662.0" y1="859" x2="678.0" y2="859" stroke="#111" stroke-width="2"/><line x1="665.0" y1="863" x2="675.0" y2="863" stroke="#111" stroke-width="2"/><line x1="668.0" y1="867" x2="672.0" y2="867" stroke="#111" stroke-width="2"/><line x1="60" y1="430" x2="60" y2="440" stroke="#111" stroke-width="2"/><line x1="52.0" y1="440" x2="68.0" y2="440" stroke="#111" stroke-width="2"/><line x1="55.0" y1="444" x2="65.0" y2="444" stroke="#111" stroke-width="2"/><line x1="58.0" y1="448" x2="62.0" y2="448" stroke="#111" stroke-width="2"/><line x1="60" y1="530" x2="60" y2="540" stroke="#111" stroke-width="2"/><line x1="52.0" y1="540" x2="68.0" y2="540" stroke="#111" stroke-width="2"/><line x1="55.0" y1="544" x2="65.0" y2="544" stroke="#111" stroke-width="2"/><line x1="58.0" y1="548" x2="62.0" y2="548" stroke="#111" stroke-width="2"/><line x1="60" y1="615" x2="60" y2="625" stroke="#111" stroke-width="2"/><line x1="52.0" y1="625" x2="68.0" y2="625" stroke="#111" stroke-width="2"/><line x1="55.0" y1="629" x2="65.0" y2="629" stroke="#111" stroke-width="2"/><line x1="58.0" y1="633" x2="62.0" y2="633" stroke="#111" stroke-width="2"/><line x1="60" y1="700" x2="60" y2="710" stroke="#111" stroke-width="2"/><line x1="52.0" y1="710" x2="68.0" y2="710" stroke="#111" stroke-width="2"/><line x1="55.0" y1="714" x2="65.0" y2="714" stroke="#111" stroke-width="2"/><line x1="58.0" y1="718" x2="62.0" y2="718" stroke="#111" stroke-width="2"/><line x1="730" y1="530" x2="730" y2="540" stroke="#111" stroke-width="2"/><line x1="722.0" y1="540" x2="738.0" y2="540" stroke="#111" stroke-width="2"/><line x1="725.0" y1="544" x2="735.0" y2="544" stroke="#111" stroke-width="2"/><line x1="728.0" y1="548" x2="732.0" y2="548" stroke="#111" stroke-width="2"/><line x1="730" y1="615" x2="730" y2="625" stroke="#111" stroke-width="2"/><line x1="722.0" y1="625" x2="738.0" y2="625" stroke="#111" stroke-width="2"/><line x1="725.0" y1="629" x2="735.0" y2="629" stroke="#111" stroke-width="2"/><line x1="728.0" y1="633" x2="732.0" y2="633" stroke="#111" stroke-width="2"/><line x1="730" y1="700" x2="730" y2="710" stroke="#111" stroke-width="2"/><line x1="722.0" y1="710" x2="738.0" y2="710" stroke="#111" stroke-width="2"/><line x1="725.0" y1="714" x2="735.0" y2="714" stroke="#111" stroke-width="2"/><line x1="728.0" y1="718" x2="732.0" y2="718" stroke="#111" stroke-width="2"/><rect x="536" y="286" width="18" height="505" rx="9" fill="#b9770e" fill-opacity="0.22"/><rect x="200" y="523" width="440" height="14" rx="7" fill="#b9770e" fill-opacity="0.16"/><rect x="200" y="608" width="440" height="14" rx="7" fill="#b9770e" fill-opacity="0.16"/><rect x="200" y="693" width="440" height="14" rx="7" fill="#b9770e" fill-opacity="0.16"/><rect x="200" y="778" width="440" height="14" rx="7" fill="#b9770e" fill-opacity="0.16"/><rect x="118" y="486" width="104" height="340" rx="10" fill="#b9770e" fill-opacity="0.09"/><rect x="618" y="486" width="104" height="340" rx="10" fill="#b9770e" fill-opacity="0.09"/><rect x="372" y="158" width="98" height="84" rx="6" fill="#c0392b" fill-opacity="0.15" stroke="#c0392b" stroke-opacity="0.55" stroke-width="1.5" stroke-dasharray="5 3"/><rect x="622" y="218" width="98" height="84" rx="6" fill="#c0392b" fill-opacity="0.15" stroke="#c0392b" stroke-opacity="0.55" stroke-width="1.5" stroke-dasharray="5 3"/><rect x="122" y="388" width="98" height="84" rx="6" fill="#c0392b" fill-opacity="0.15" stroke="#c0392b" stroke-opacity="0.55" stroke-width="1.5" stroke-dasharray="5 3"/><circle cx="520" cy="200" r="12" fill="#c0392b"/><text x="520" y="205" font-size="14" font-family="Georgia,serif" fill="#fff" text-anchor="middle" font-weight="bold">1</text><circle cx="520" cy="228" r="12" fill="#6c3483"/><text x="520" y="233" font-size="14" font-family="Georgia,serif" fill="#fff" text-anchor="middle" font-weight="bold">3</text><circle cx="770" cy="260" r="12" fill="#c0392b"/><text x="770" y="265" font-size="14" font-family="Georgia,serif" fill="#fff" text-anchor="middle" font-weight="bold">1</text><circle cx="770" cy="288" r="12" fill="#6c3483"/><text x="770" y="293" font-size="14" font-family="Georgia,serif" fill="#fff" text-anchor="middle" font-weight="bold">3</text><circle cx="252" cy="398" r="12" fill="#c0392b"/><text x="252" y="403" font-size="14" font-family="Georgia,serif" fill="#fff" text-anchor="middle" font-weight="bold">1</text><circle cx="252" cy="370" r="12" fill="#6c3483"/><text x="252" y="375" font-size="14" font-family="Georgia,serif" fill="#fff" text-anchor="middle" font-weight="bold">3</text><circle cx="258" cy="140" r="12" fill="#6c3483"/><text x="258" y="145" font-size="14" font-family="Georgia,serif" fill="#fff" text-anchor="middle" font-weight="bold">3</text><circle cx="466" cy="398" r="12" fill="#6c3483"/><text x="466" y="403" font-size="14" font-family="Georgia,serif" fill="#fff" text-anchor="middle" font-weight="bold">3</text><circle cx="545" cy="266" r="12" fill="#b9770e"/><text x="545" y="271" font-size="14" font-family="Georgia,serif" fill="#fff" text-anchor="middle" font-weight="bold">2</text><text x="14" y="128" font-size="13" font-family="Georgia,serif" fill="#555" text-anchor="start" font-weight="bold" font-style="normal">vbp = 2.674 V</text><text x="250" y="222" font-size="13" font-family="Georgia,serif" fill="#555" text-anchor="start" font-weight="bold" font-style="normal">vbn = 0.614 V</text><text x="424" y="282" font-size="13" font-family="Georgia,serif" fill="#555" text-anchor="start" font-weight="bold" font-style="normal">vbr = 1.012 V</text><text x="188" y="478" font-size="13" font-family="Georgia,serif" fill="#555" text-anchor="start" font-weight="bold" font-style="normal">vres = 93 mV</text><text x="188" y="495" font-size="11" font-family="Georgia,serif" fill="#555" text-anchor="start" font-weight="normal" font-style="normal">= n·U</text><text x="221" y="498" font-size="9" font-family="Georgia,serif" fill="#555" text-anchor="start" font-weight="normal" font-style="normal">T</text><text x="228" y="495" font-size="11" font-family="Georgia,serif" fill="#555" text-anchor="start" font-weight="normal" font-style="normal">·ln 16</text><text x="196" y="306" font-size="13" font-family="Georgia,serif" fill="#555" text-anchor="start" font-weight="normal" font-style="italic">I₁ = 47 nA</text><text x="440" y="306" font-size="13" font-family="Georgia,serif" fill="#555" text-anchor="start" font-weight="normal" font-style="italic">I₂ = 187 nA</text><text x="592" y="344" font-size="13" font-family="Georgia,serif" fill="#555" text-anchor="start" font-weight="normal" font-style="italic">I₃ = 93 nA</text><text x="255" y="566" font-size="12" font-family="Georgia,serif" fill="#555" text-anchor="start" font-weight="normal" font-style="italic">stack devices: L = 20 µm, ×4 in series</text><text x="30" y="36" font-size="20" font-family="Georgia,serif" fill="#111" text-anchor="start" font-weight="bold" font-style="normal">OgueyAebischerBias core — where the PSRR and the matching go</text><text x="30" y="58" font-size="13" font-family="Georgia,serif" fill="#555" text-anchor="start" font-weight="normal" font-style="italic">measured tt, 27 °C, 3.3 V — RUN_2026-09-04_08-27-47</text><text x="30" y="900" font-size="12" font-family="Georgia,serif" fill="#555" text-anchor="start" font-weight="normal" font-style="italic">ToBiasStartup (start-up kick + disable) is not drawn: Iq_disabled = 66 pA measured, so it contributes nothing at DC.</text><text x="30" y="918" font-size="12" font-family="Georgia,serif" fill="#555" text-anchor="start" font-weight="normal" font-style="italic">Vi1 / Vi4 / Viaux are 0 V ammeters — electrically shorts — so they appear as branch currents, not symbols.</text><rect x="856" y="60" width="390" height="812" rx="10" fill="#fafafa" stroke="#ddd"/><circle cx="874" cy="92" r="12" fill="#c0392b"/><text x="874" y="97" font-size="14" font-family="Georgia,serif" fill="#fff" text-anchor="middle" font-weight="bold">1</text><text x="896" y="97" font-size="15" font-family="Georgia,serif" fill="#c0392b" text-anchor="start" font-weight="bold" font-style="normal">The disturbance gets in here</text><text x="896" y="122" font-size="13" font-family="Georgia,serif" fill="#111" text-anchor="start" font-weight="normal" font-style="normal">M13, M14 and M10 each have a drain that</text><text x="896" y="140" font-size="13" font-family="Georgia,serif" fill="#111" text-anchor="start" font-weight="normal" font-style="normal">moves 1 : 1 with VDD. M12 and M11 are</text><text x="896" y="158" font-size="13" font-family="Georgia,serif" fill="#111" text-anchor="start" font-weight="normal" font-style="normal">diode-connected, so their Vds is pinned.</text><text x="896" y="176" font-size="13" font-family="Georgia,serif" fill="#111" text-anchor="start" font-weight="normal" font-style="normal"></text><text x="896" y="194" font-size="13" font-family="Georgia,serif" fill="#111" text-anchor="start" font-weight="normal" font-style="normal">Leg_matching typ = +5.568 % is exactly this:</text><text x="896" y="212" font-size="13" font-family="Georgia,serif" fill="#111" text-anchor="start" font-weight="normal" font-style="normal">M12 and M13 share Vsg, but their drains sit</text><text x="896" y="230" font-size="13" font-family="Georgia,serif" fill="#111" text-anchor="start" font-weight="normal" font-style="normal">2.06 V apart, so</text><text x="896" y="248" font-size="13" font-family="Georgia,serif" fill="#111" text-anchor="start" font-weight="normal" font-style="normal">     (1/I)·dI/dVsd = 2.70 %/V,   V_A ≈ 37 V.</text><text x="896" y="266" font-size="13" font-family="Georgia,serif" fill="#111" text-anchor="start" font-weight="normal" font-style="normal">The device is fine — this is only the door.</text><text x="896" y="284" font-size="13" font-family="Georgia,serif" fill="#111" text-anchor="start" font-weight="normal" font-style="normal"></text><text x="896" y="302" font-size="13" font-family="Georgia,serif" fill="#111" text-anchor="start" font-weight="normal" font-style="normal">Fix: cascode M13, M14, M10. vbr and vbn are</text><text x="896" y="320" font-size="13" font-family="Georgia,serif" fill="#111" text-anchor="start" font-weight="normal" font-style="normal">already sitting there to use as cascode gates.</text><circle cx="874" cy="356" r="12" fill="#b9770e"/><text x="874" y="361" font-size="14" font-family="Georgia,serif" fill="#fff" text-anchor="middle" font-weight="bold">2</text><text x="896" y="361" font-size="15" font-family="Georgia,serif" fill="#b9770e" text-anchor="start" font-weight="bold" font-style="normal">Then the loop multiplies it ×10</text><text x="896" y="386" font-size="13" font-family="Georgia,serif" fill="#111" text-anchor="start" font-weight="normal" font-style="normal">vbr gates all eight stack devices at once, and</text><text x="896" y="404" font-size="13" font-family="Georgia,serif" fill="#111" text-anchor="start" font-weight="normal" font-style="normal">vbr moves 61.7 mV/V. They sit at Vgs−Vth ≈ 0.3 V,</text><text x="896" y="422" font-size="13" font-family="Georgia,serif" fill="#111" text-anchor="start" font-weight="normal" font-style="normal">so the stack conductance — which IS the</text><text x="896" y="440" font-size="13" font-family="Georgia,serif" fill="#111" text-anchor="start" font-weight="normal" font-style="normal">reference resistor — swings with the supply.</text><text x="896" y="458" font-size="13" font-family="Georgia,serif" fill="#111" text-anchor="start" font-weight="normal" font-style="normal"></text><text x="896" y="476" font-size="13" font-family="Georgia,serif" fill="#111" text-anchor="start" font-weight="normal" font-style="normal">Positive feedback:</text><text x="896" y="494" font-size="13" font-family="Georgia,serif" fill="#111" text-anchor="start" font-weight="normal" font-style="normal">     VDD↑ → I₃↑ → vbr↑ → G↑ → I↑ → I₃↑</text><text x="896" y="512" font-size="13" font-family="Georgia,serif" fill="#111" text-anchor="start" font-weight="normal" font-style="normal">Loop gain ≈ 0.9, hence 1/(1−T) ≈ 10.</text><text x="896" y="530" font-size="13" font-family="Georgia,serif" fill="#111" text-anchor="start" font-weight="normal" font-style="normal"></text><text x="896" y="548" font-size="13" font-family="Georgia,serif" fill="#111" text-anchor="start" font-weight="normal" font-style="normal">     per device        2.70 %/V</text><text x="896" y="566" font-size="13" font-family="Georgia,serif" fill="#111" text-anchor="start" font-weight="normal" font-style="normal">     at the output   27.5 %/V   ⇒   PSRR 24.3 dB</text><text x="896" y="584" font-size="13" font-family="Georgia,serif" fill="#111" text-anchor="start" font-weight="normal" font-style="normal"></text><text x="896" y="602" font-size="13" font-family="Georgia,serif" fill="#111" text-anchor="start" font-weight="normal" font-style="normal">The ×10 is structural. Shrink what gets</text><text x="896" y="620" font-size="13" font-family="Georgia,serif" fill="#111" text-anchor="start" font-weight="normal" font-style="normal">injected instead — that is (1).</text><circle cx="874" cy="656" r="12" fill="#6c3483"/><text x="874" y="661" font-size="14" font-family="Georgia,serif" fill="#fff" text-anchor="middle" font-weight="bold">3</text><text x="896" y="661" font-size="15" font-family="Georgia,serif" fill="#6c3483" text-anchor="start" font-weight="bold" font-style="normal">Everything here is 1 µm²</text><text x="896" y="686" font-size="13" font-family="Georgia,serif" fill="#111" text-anchor="start" font-weight="normal" font-style="normal">M10 M11 M12 M13 M14 are all W = L = 1 µm.</text><text x="896" y="704" font-size="13" font-family="Georgia,serif" fill="#111" text-anchor="start" font-weight="normal" font-style="normal">From Leg_matching σ ≈ 12 %: A_VT ≈ 5–7 mV·µm.</text><text x="896" y="722" font-size="13" font-family="Georgia,serif" fill="#111" text-anchor="start" font-weight="normal" font-style="normal"></text><text x="896" y="740" font-size="13" font-family="Georgia,serif" fill="#111" text-anchor="start" font-weight="normal" font-style="normal">Ibias_accuracy spans −76 % … +148 %, σ ≈ 50 %</text><text x="896" y="758" font-size="13" font-family="Georgia,serif" fill="#111" text-anchor="start" font-weight="normal" font-style="normal">— the same ×10 loop, amplifying mismatch now.</text><text x="896" y="776" font-size="13" font-family="Georgia,serif" fill="#111" text-anchor="start" font-weight="normal" font-style="normal"></text><text x="896" y="794" font-size="13" font-family="Georgia,serif" fill="#111" text-anchor="start" font-weight="normal" font-style="normal">For σ ≈ 3 % you need W·L ≈ 75–100 µm² each,</text><text x="896" y="812" font-size="13" font-family="Georgia,serif" fill="#111" text-anchor="start" font-weight="normal" font-style="normal">i.e. ×100 area. It is a √area law, no escape.</text><text x="896" y="830" font-size="13" font-family="Georgia,serif" fill="#111" text-anchor="start" font-weight="normal" font-style="normal">The same area buys ×10 on the 1/f noise.</text></svg>