<?xml version="1.0" encoding="UTF-8" standalone="no"?>
<!DOCTYPE svg PUBLIC "-//W3C//DTD SVG 1.1//EN"
 "http://www.w3.org/Graphics/SVG/1.1/DTD/svg11.dtd">
<!-- Generated by graphviz version 2.43.0 (0)
 -->
<!-- Title: packages_cm Pages: 1 -->
<svg width="1081pt" height="555pt"
 viewBox="0.00 0.00 1081.00 555.00" xmlns="http://www.w3.org/2000/svg" xmlns:xlink="http://www.w3.org/1999/xlink" xmlns:c2pa="http://c2pa.org/manifest"><metadata><c2pa:manifest>AAAWgmp1bWIAAAAeanVtZGMycGEAEQAQgAAAqgA4m3EDYzJwYQAAABZcanVtYgAAAEdqdW1kYzJtYQARABCAAACqADibcQN1cm46YzJwYTo3ZmY3MTE4MC1hODkxLTQ3NGYtODJkMC0zMWI3YjI1MDc4MDIAAAADl2p1bWIAAAApanVtZGMyYXMAEQAQgAAAqgA4m3EDYzJwYS5hc3NlcnRpb25zAAAAALxqdW1iAAAARGp1bWRjYm9yABEAEIAAAKoAOJtxE2MycGEuaW5ncmVkaWVudC52MwAAAAAYYzJzaCZXwyyqkzoNZ5qQ46RsVDUAAABwY2JvcqNpZGM6Zm9ybWF0bWltYWdlL3N2Zyt4bWxqaW5zdGFuY2VJRHgseG1wOmlpZDo1ZGEyNDIyYi1kMzAyLTQ2YTktYTRjMi1iNzc4YzAzY2Y1NDVscmVsYXRpb25zaGlwaHBhcmVudE9mAAAB4mp1bWIAAABBanVtZGNib3IAEQAQgAAAqgA4m3ETYzJwYS5hY3Rpb25zLnYyAAAAABhjMnNoUA/8hK2JnNWNb/zMePlkQQAAAZljYm9yomdhY3Rpb25zgqJmYWN0aW9ua2MycGEub3BlbmVkanBhcmFtZXRlcnOha2luZ3JlZGllbnRzgaJjdXJseC1zZWxmI2p1bWJmPWMycGEuYXNzZXJ0aW9ucy9jMnBhLmluZ3JlZGllbnQudjNkaGFzaFgg60o4k74+JiYCd+t5ORvEbcIFaBBkSRYfOk2SCgwIbUqkZmFjdGlvbngdY29tLmFudGhyb3BpYy5jbGF1ZGUucHJvdmlkZWRqcGFyYW1ldGVyc6F4H2NvbS5hbnRocm9waWMub3JpZ2luLWNvbmZpZGVuY2VndW5rbm93bmtkZXNjcmlwdGlvbnhmQ2xhdWRlIHByb3ZpZGVkIHRoaXMgZmlsZSBhdCB0aGUgcmVxdWVzdCBvZiBhIHVzZXIgYW5kIG1heSBoYXZlIGNyZWF0ZWQgb3IgbW9kaWZpZWQgdGhlIGZpbGUgY29udGVudHMubXNvZnR3YXJlQWdlbnShZG5hbWVmQ2xhdWRlcmFsbEFjdGlvbnNJbmNsdWRlZPUAAADIanVtYgAAAEBqdW1kY2JvcgARABCAAACqADibcRNjMnBhLmhhc2guZGF0YQAAAAAYYzJzaF0oGXcrjYsxWDA0Y9olNDIAAACAY2JvcqVjYWxnZnNoYTI1NmNwYWRMAAAAAAAAAAAAAAAAZGhhc2hYIJwP0kqOzo6zcRojzgbjynBI0stLkpv2zOuBIFoKA98wZG5hbWVuanVtYmYgbWFuaWZlc3RqZXhjbHVzaW9uc4GiZXN0YXJ0GQHHZmxlbmd0aBkeBAAAAj5qdW1iAAAAJ2p1bWRjMmNsABEAEIAAAKoAOJtxA2MycGEuY2xhaW0udjIAAAACD2Nib3KlY2FsZ2ZzaGEyNTZpc2lnbmF0dXJleE1zZWxmI2p1bWJmPS9jMnBhL3VybjpjMnBhOjdmZjcxMTgwLWE4OTEtNDc0Zi04MmQwLTMxYjdiMjUwNzgwMi9jMnBhLnNpZ25hdHVyZWppbnN0YW5jZUlEeCx4bXA6aWlkOjIwNDJkMGYzLTkyY2UtNDEzZC1iMDBjLWQyMDI0ZmNhYWEzMHJjcmVhdGVkX2Fzc2VydGlvbnODomN1cmx4LXNlbGYjanVtYmY9YzJwYS5hc3NlcnRpb25zL2MycGEuaW5ncmVkaWVudC52M2RoYXNoWCDrSjiTvj4mJgJ363k5G8RtwgVoEGRJFh86TZIKDAhtSqJjdXJseCpzZWxmI2p1bWJmPWMycGEuYXNzZXJ0aW9ucy9jMnBhLmFjdGlvbnMudjJkaGFzaFggAvDFvMbO29GuMaAjKl4pCILaFj7bbgEgVelTMXdZDdiiY3VybHgpc2VsZiNqdW1iZj1jMnBhLmFzc2VydGlvbnMvYzJwYS5oYXNoLmRhdGFkaGFzaFggxd58Nr58zhRPeRMP90+g+vVoxxSNh0rVTWaSlcpQ7F90Y2xhaW1fZ2VuZXJhdG9yX2luZm+jZG5hbWVvQW50aHJvcGljIEZpbGVzZ3ZlcnNpb25lMS4wLjBrc3BlY1ZlcnNpb25lMi40LjAAABA4anVtYgAAAChqdW1kYzJjcwARABCAAACqADibcQNjMnBhLnNpZ25hdHVyZQAAABAIY2JvctKEWQISogEmGCFZAgowggIGMIIBjaADAgECAhRA5aAK7sI50L64g/oGQgU9Z1UTADAKBggqhkjOPQQDAzBJMRcwFQYDVQQKEw5BbnRocm9waWMsIFBCQzEuMCwGA1UEAxMlQW50aHJvcGljIENvbnRlbnQgQ3JlZGVudGlhbHMgUm9vdCBDQTAeFw0yNjA4MDcxODQzNTZaFw0yODA4MDYxOTQzNTZaMEQxFzAVBgNVBAoTDkFudGhyb3BpYywgUEJDMSkwJwYDVQQDEyBBbnRocm9waWMgQ2xhdWRlIENvbnRlbnQgU2lnbmluZzBZMBMGByqGSM49AgEGCCqGSM49AwEHA0IABJh6CmvLUBgFFNU0vUKlOVtE6djd17L5SuwX0LemFisBM3dkd/3cyjxFA3Qo5S46fX0/ihY0VZ7mfb9KF703t5OjWDBWMA4GA1UdDwEB/wQEAwIHgDAVBgNVHSUEDjAMBgorBgEEAYPoXgIBMAwGA1UdEwEB/wQCMAAwHwYDVR0jBBgwFoAUzlHiBIFOZFsj+OPEz5o+nMHXXMIwCgYIKoZIzj0EAwMDZwAwZAIwMXMdFJ4BetLLVY7ORuE9noqbbAZOZn/aArXyTwFAZfKrPzxF2vPoJNf1+UCdg1XGAjBwX1zd9WGqYkqmL5SFqw1QySjr1zJfpJM9+1rdDwSPLMOPOjKuiXjoU/pUUeG9RwmhY3BhZFkNngAAAAAAAAAAAAAAAAAAAAAAAAAAAAAAAAAAAAAAAAAAAAAAAAAAAAAAAAAAAAAAAAAAAAAAAAAAAAAAAAAAAAAAAAAAAAAAAAAAAAAAAAAAAAAAAAAAAAAAAAAAAAAAAAAAAAAAAAAAAAAAAAAAAAAAAAAAAAAAAAAAAAAAAAAAAAAAAAAAAAAAAAAAAAAAAAAAAAAAAAAAAAAAAAAAAAAAAAAAAAAAAAAAAAAAAAAAAAAAAAAAAAAAAAAAAAAAAAAAAAAAAAAAAAAAAAAAAAAAAAAAAAAAAAAAAAAAAAAAAAAAAAAAAAAAAAAAAAAAAAAAAAAAAAAAAAAAAAAAAAAAAAAAAAAAAAAAAAAAAAAAAAAAAAAAAAAAAAAAAAAAAAAAAAAAAAAAAAAAAAAAAAAAAAAAAAAAAAAAAAAAAAAAAAAAAAAAAAAAAAAAAAAAAAAAAAAAAAAAAAAAAAAAAAAAAAAAAAAAAAAAAAAAAAAAAAAAAAAAAAAAAAAAAAAAAAAAAAAAAAAAAAAAAAAAAAAAAAAAAAAAAAAAAAAAAAAAAAAAAAAAAAAAAAAAAAAAAAAAAAAAAAAAAAAAAAAAAAAAAAAAAAAAAAAAAAAAAAAAAAAAAAAAAAAAAAAAAAAAAAAAAAAAAAAAAAAAAAAAAAAAAAAAAAAAAAAAAAAAAAAAAAAAAAAAAAAAAAAAAAAAAAAAAAAAAAAAAAAAAAAAAAAAAAAAAAAAAAAAAAAAAAAAAAAAAAAAAAAAAAAAAAAAAAAAAAAAAAAAAAAAAAAAAAAAAAAAAAAAAAAAAAAAAAAAAAAAAAAAAAAAAAAAAAAAAAAAAAAAAAAAAAAAAAAAAAAAAAAAAAAAAAAAAAAAAAAAAAAAAAAAAAAAAAAAAAAAAAAAAAAAAAAAAAAAAAAAAAAAAAAAAAAAAAAAAAAAAAAAAAAAAAAAAAAAAAAAAAAAAAAAAAAAAAAAAAAAAAAAAAAAAAAAAAAAAAAAAAAAAAAAAAAAAAAAAAAAAAAAAAAAAAAAAAAAAAAAAAAAAAAAAAAAAAAAAAAAAAAAAAAAAAAAAAAAAAAAAAAAAAAAAAAAAAAAAAAAAAAAAAAAAAAAAAAAAAAAAAAAAAAAAAAAAAAAAAAAAAAAAAAAAAAAAAAAAAAAAAAAAAAAAAAAAAAAAAAAAAAAAAAAAAAAAAAAAAAAAAAAAAAAAAAAAAAAAAAAAAAAAAAAAAAAAAAAAAAAAAAAAAAAAAAAAAAAAAAAAAAAAAAAAAAAAAAAAAAAAAAAAAAAAAAAAAAAAAAAAAAAAAAAAAAAAAAAAAAAAAAAAAAAAAAAAAAAAAAAAAAAAAAAAAAAAAAAAAAAAAAAAAAAAAAAAAAAAAAAAAAAAAAAAAAAAAAAAAAAAAAAAAAAAAAAAAAAAAAAAAAAAAAAAAAAAAAAAAAAAAAAAAAAAAAAAAAAAAAAAAAAAAAAAAAAAAAAAAAAAAAAAAAAAAAAAAAAAAAAAAAAAAAAAAAAAAAAAAAAAAAAAAAAAAAAAAAAAAAAAAAAAAAAAAAAAAAAAAAAAAAAAAAAAAAAAAAAAAAAAAAAAAAAAAAAAAAAAAAAAAAAAAAAAAAAAAAAAAAAAAAAAAAAAAAAAAAAAAAAAAAAAAAAAAAAAAAAAAAAAAAAAAAAAAAAAAAAAAAAAAAAAAAAAAAAAAAAAAAAAAAAAAAAAAAAAAAAAAAAAAAAAAAAAAAAAAAAAAAAAAAAAAAAAAAAAAAAAAAAAAAAAAAAAAAAAAAAAAAAAAAAAAAAAAAAAAAAAAAAAAAAAAAAAAAAAAAAAAAAAAAAAAAAAAAAAAAAAAAAAAAAAAAAAAAAAAAAAAAAAAAAAAAAAAAAAAAAAAAAAAAAAAAAAAAAAAAAAAAAAAAAAAAAAAAAAAAAAAAAAAAAAAAAAAAAAAAAAAAAAAAAAAAAAAAAAAAAAAAAAAAAAAAAAAAAAAAAAAAAAAAAAAAAAAAAAAAAAAAAAAAAAAAAAAAAAAAAAAAAAAAAAAAAAAAAAAAAAAAAAAAAAAAAAAAAAAAAAAAAAAAAAAAAAAAAAAAAAAAAAAAAAAAAAAAAAAAAAAAAAAAAAAAAAAAAAAAAAAAAAAAAAAAAAAAAAAAAAAAAAAAAAAAAAAAAAAAAAAAAAAAAAAAAAAAAAAAAAAAAAAAAAAAAAAAAAAAAAAAAAAAAAAAAAAAAAAAAAAAAAAAAAAAAAAAAAAAAAAAAAAAAAAAAAAAAAAAAAAAAAAAAAAAAAAAAAAAAAAAAAAAAAAAAAAAAAAAAAAAAAAAAAAAAAAAAAAAAAAAAAAAAAAAAAAAAAAAAAAAAAAAAAAAAAAAAAAAAAAAAAAAAAAAAAAAAAAAAAAAAAAAAAAAAAAAAAAAAAAAAAAAAAAAAAAAAAAAAAAAAAAAAAAAAAAAAAAAAAAAAAAAAAAAAAAAAAAAAAAAAAAAAAAAAAAAAAAAAAAAAAAAAAAAAAAAAAAAAAAAAAAAAAAAAAAAAAAAAAAAAAAAAAAAAAAAAAAAAAAAAAAAAAAAAAAAAAAAAAAAAAAAAAAAAAAAAAAAAAAAAAAAAAAAAAAAAAAAAAAAAAAAAAAAAAAAAAAAAAAAAAAAAAAAAAAAAAAAAAAAAAAAAAAAAAAAAAAAAAAAAAAAAAAAAAAAAAAAAAAAAAAAAAAAAAAAAAAAAAAAAAAAAAAAAAAAAAAAAAAAAAAAAAAAAAAAAAAAAAAAAAAAAAAAAAAAAAAAAAAAAAAAAAAAAAAAAAAAAAAAAAAAAAAAAAAAAAAAAAAAAAAAAAAAAAAAAAAAAAAAAAAAAAAAAAAAAAAAAAAAAAAAAAAAAAAAAAAAAAAAAAAAAAAAAAAAAAAAAAAAAAAAAAAAAAAAAAAAAAAAAAAAAAAAAAAAAAAAAAAAAAAAAAAAAAAAAAAAAAAAAAAAAAAAAAAAAAAAAAAAAAAAAAAAAAAAAAAAAAAAAAAAAAAAAAAAAAAAAAAAAAAAAAAAAAAAAAAAAAAAAAAAAAAAAAAAAAAAAAAAAAAAAAAAAAAAAAAAAAAAAAAAAAAAAAAAAAAAAAAAAAAAAAAAAAAAAAAAAAAAAAAAAAAAAAAAAAAAAAAAAAAAAAAAAAAAAAAAAAAAAAAAAAAAAAAAAAAAAAAAAAAAAAAAAAAAAAAAAAAAAAAAAAAAAAAAAAAAAAAAAAAAAAAAAAAAAAAAAAAAAAAAAAAAAAAAAAAAAAAAAAAAAAAAAAAAAAAAAAAAAAAAAAAAAAAAAAAAAAAAAAAAAAAAAAAAAAAAAAAAAAAAAAAAAAAAAAAAAAAAAAAAAAAAAAAAAAAAAAAAAAAAAAAAAAAAAAAAAAAAAAAAAAAAAAAAAAAAAAAAAAAAAAAAAAAAAAAAAAAAAAAAAAAAAAAAAAAAAAAAAAAAAAAAAAAAAAAAAAAAAAAAAAAAAAAAAAAAAAAAAAAAAAAAAAAAAAAAAAAAAAAAAAAAAAAAAAAAAAAAAAAAAAAAAAAAAAAAAAAAAAAAAAAAAAAAAAAAAAAAAAAAAAAAAAAAAAAAAAAAAAAAAAAAAAAAAAAAAAAAAAAAAAAAAAAAAAAAAAAAAAAAAAAAAAAAAAAAAAAAAAAAAAAAAAAAAAAAAAAAAAAAAAAAAAAAAAAAAAAAAAAAAAAAAAAAAAAAAAAAAAAAAAAAAAAAAAAAAAAAAAAAAAAAAAAAAAAAAAAAAAAAAAAAAAAAAAAAAAAAAAAAAAAAAAAAAAAAAAAAAAAAAAAAAAAAAAAAAAAAAAAAAAAAAAAAAAAAAAAAAAAAAAAAAAAAAAAAAAAAAAAAAAAAAAAAAAAAAAAAAAAAAAAAAAAAAAAAAAAAAAAAAAAAAAAAAAAAAAAAAAAAAAAAAAAAAAAAAAAAAAAAAAAAAAAAAAAAAAAAAAAAAAAAAAAAAAAAAAAAAAAAAAAAAAAAAAAAAAAAAAAAAAAAAAAAAAAAAAAAAAAAAAAAAAAAAAAAAAAAAAAAAAAAAAAAAAAAAAAAAAAAAAAAAAAAAAAAAAAAAAAAAAAAAAAAAAAAAAAAAAAAAAAAAAAAAAAAAAAAAAAAAAAAAAAAAAAAAAAAAAAAAAAAAAAAAAAAAAAAAAAAAAAAAAAAAAAAAAAAAAAAAAAAAAAAAAAAAAAAAAAAAAAAAAAAAAAAAAAAAAAAAAAAAAAAAAAAAAAAAAAAAAAAAAAAAAAAAAAAAAAAAAAAAAAAAAAAAAAAAAAAAAAAAAAAAAAAAAAAAAAAAAAAAAAAAAAAAAAAAAAAAAAAAAAAAAAAAAAAAAAAAAAAAAAAAAAAAAAAAAAAAAAAAAAAAAAAAAAAAAAAAAAAAAAAAAAAAAAAAAAAAAAAAAAAAAAAAAAAAAAAAAAAAAAAAAAAAAAAAAAAAAAAAAAAAAAAAAAAAAAAAAAAAAAAAAAAAAAAAAAAAAAAAAAAAAAAAAAAAAAAAAAAAAAAAAAAAAAAAAAAAAAAAAAAAAAAAAAAAAAAAAAAAAAAAAAAAAAAAAAAAAAAAAAAAAAAAAAAAAAAAAAAAAAAAAAAAAAAAAAAAAAAAAAAAAAAAAAAAAAAAAAAAAAAAAAAAAAAAAAAAAAAAAAAAAAAAAAAAAAAAAAAAAAAAAAAAAAAAAAAAAAAAAAAAAPZYQPShDzyHeNcPmSxmUK3fpmpNZqgKkYcoQW7gNW5qMu/1IGCNvbvGEsCm+MMMX3+m+I5wXtl2V7O87mV9HgPBhH8=</c2pa:manifest></metadata>
<g id="graph0" class="graph" transform="scale(1 1) rotate(0) translate(4 551)">
<title>packages_cm</title>
<polygon fill="white" stroke="transparent" points="-4,4 -4,-551 1077,-551 1077,4 -4,4"/>
<text text-anchor="middle" x="536.5" y="-531.8" font-family="Times,serif" font-size="14.00">pyreverse (pylint 4.0.9) import graph of scripts/pcells (package sg13cmos5l_cm_clamps), relaid out LR; A → B = A imports B</text>
<text text-anchor="middle" x="536.5" y="-516.8" font-family="Times,serif" font-size="14.00">not shown (dynamic or outside the analysed package): __init__ → Clamp_N/P_code (importlib), load_clamp_pcells → __init__ (spec_from_file_location),</text>
<text text-anchor="middle" x="536.5" y="-501.8" font-family="Times,serif" font-size="14.00">use_clamp_pcells, verify_clamp → load_clamp_pcells (runpy); imports of cni / sg13cmos5l_pycell_lib (see cm_pcells_call_tree.txt)</text>
<!-- sg13cmos5l_cm_clamps -->
<g id="node1" class="node">
<title>sg13cmos5l_cm_clamps</title>
<polygon fill="none" stroke="black" points="340,-224 88,-224 88,-188 340,-188 340,-224"/>
<text text-anchor="start" x="96" y="-202.3" font-family="Times,serif" font-size="14.00">sg13cmos5l_cm_clamps (__init__)</text>
</g>
<!-- sg13cmos5l_cm_clamps.BasicsLib -->
<g id="node2" class="node">
<title>sg13cmos5l_cm_clamps.BasicsLib</title>
<polygon fill="none" stroke="black" points="256.5,-278 171.5,-278 171.5,-242 256.5,-242 256.5,-278"/>
<text text-anchor="start" x="179.5" y="-256.3" font-family="Times,serif" font-size="14.00">BasicsLib</text>
</g>
<!-- sg13cmos5l_cm_clamps.Clamp_N_code -->
<g id="node3" class="node">
<title>sg13cmos5l_cm_clamps.Clamp_N_code</title>
<polygon fill="none" stroke="black" points="274.5,-386 153.5,-386 153.5,-350 274.5,-350 274.5,-386"/>
<text text-anchor="start" x="161.5" y="-364.3" font-family="Times,serif" font-size="14.00">Clamp_N_code</text>
</g>
<!-- sg13cmos5l_cm_clamps.clamp_base_code -->
<g id="node5" class="node">
<title>sg13cmos5l_cm_clamps.clamp_base_code</title>
<polygon fill="none" stroke="black" points="551,-359 412,-359 412,-323 551,-323 551,-359"/>
<text text-anchor="start" x="420" y="-337.3" font-family="Times,serif" font-size="14.00">clamp_base_code</text>
</g>
<!-- sg13cmos5l_cm_clamps.Clamp_N_code&#45;&gt;sg13cmos5l_cm_clamps.clamp_base_code -->
<g id="edge1" class="edge">
<title>sg13cmos5l_cm_clamps.Clamp_N_code&#45;&gt;sg13cmos5l_cm_clamps.clamp_base_code</title>
<path fill="none" stroke="black" d="M274.58,-361.94C312.07,-358.13 360.89,-353.16 401.58,-349.03"/>
<polygon fill="black" stroke="black" points="411.74,-347.99 402.24,-353.48 406.76,-348.5 401.79,-349 401.79,-349 401.79,-349 406.76,-348.5 401.33,-344.53 411.74,-347.99 411.74,-347.99"/>
</g>
<!-- sg13cmos5l_cm_clamps.Clamp_P_code -->
<g id="node4" class="node">
<title>sg13cmos5l_cm_clamps.Clamp_P_code</title>
<polygon fill="none" stroke="black" points="273.5,-332 154.5,-332 154.5,-296 273.5,-296 273.5,-332"/>
<text text-anchor="start" x="162.5" y="-310.3" font-family="Times,serif" font-size="14.00">Clamp_P_code</text>
</g>
<!-- sg13cmos5l_cm_clamps.Clamp_P_code&#45;&gt;sg13cmos5l_cm_clamps.clamp_base_code -->
<g id="edge2" class="edge">
<title>sg13cmos5l_cm_clamps.Clamp_P_code&#45;&gt;sg13cmos5l_cm_clamps.clamp_base_code</title>
<path fill="none" stroke="black" d="M273.59,-319.96C311.26,-323.79 360.66,-328.81 401.74,-332.99"/>
<polygon fill="black" stroke="black" points="411.72,-334.01 401.32,-337.47 406.74,-333.5 401.77,-332.99 401.77,-332.99 401.77,-332.99 406.74,-333.5 402.23,-328.52 411.72,-334.01 411.72,-334.01"/>
</g>
<!-- sg13cmos5l_cm_clamps.clamp_engine -->
<g id="node6" class="node">
<title>sg13cmos5l_cm_clamps.clamp_engine</title>
<polygon fill="none" stroke="black" points="985,-155 871,-155 871,-119 985,-119 985,-155"/>
<text text-anchor="start" x="879" y="-133.3" font-family="Times,serif" font-size="14.00">clamp_engine</text>
</g>
<!-- sg13cmos5l_cm_clamps.clamp_base_code&#45;&gt;sg13cmos5l_cm_clamps.clamp_engine -->
<g id="edge3" class="edge">
<title>sg13cmos5l_cm_clamps.clamp_base_code&#45;&gt;sg13cmos5l_cm_clamps.clamp_engine</title>
<path fill="none" stroke="black" d="M551.22,-353.64C618.78,-362.45 722.61,-365.97 799,-323 861.78,-287.68 900.39,-207.22 917.17,-164.63"/>
<polygon fill="black" stroke="black" points="920.79,-155.16 921.43,-166.11 919.01,-159.83 917.22,-164.5 917.22,-164.5 917.22,-164.5 919.01,-159.83 913.02,-162.9 920.79,-155.16 920.79,-155.16"/>
</g>
<!-- sg13cmos5l_cm_clamps.clamp_refdata -->
<g id="node9" class="node">
<title>sg13cmos5l_cm_clamps.clamp_refdata</title>
<polygon fill="none" stroke="black" points="770,-290 652,-290 652,-254 770,-254 770,-290"/>
<text text-anchor="start" x="660" y="-268.3" font-family="Times,serif" font-size="14.00">clamp_refdata</text>
</g>
<!-- sg13cmos5l_cm_clamps.clamp_base_code&#45;&gt;sg13cmos5l_cm_clamps.clamp_refdata -->
<g id="edge4" class="edge">
<title>sg13cmos5l_cm_clamps.clamp_base_code&#45;&gt;sg13cmos5l_cm_clamps.clamp_refdata</title>
<path fill="none" stroke="black" d="M541.98,-322.96C572.64,-313.66 610.17,-302.28 641.98,-292.63"/>
<polygon fill="black" stroke="black" points="651.66,-289.69 643.39,-296.9 646.87,-291.15 642.09,-292.6 642.09,-292.6 642.09,-292.6 646.87,-291.15 640.78,-288.29 651.66,-289.69 651.66,-289.69"/>
</g>
<!-- sg13cmos5l_cm_clamps.clamp_klayout -->
<g id="node7" class="node">
<title>sg13cmos5l_cm_clamps.clamp_klayout</title>
<polygon fill="none" stroke="black" points="770.5,-236 651.5,-236 651.5,-200 770.5,-200 770.5,-236"/>
<text text-anchor="start" x="659.5" y="-214.3" font-family="Times,serif" font-size="14.00">clamp_klayout</text>
</g>
<!-- sg13cmos5l_cm_clamps.clamp_netlist -->
<g id="node8" class="node">
<title>sg13cmos5l_cm_clamps.clamp_netlist</title>
<polygon fill="none" stroke="black" points="767,-182 655,-182 655,-146 767,-146 767,-182"/>
<text text-anchor="start" x="663" y="-160.3" font-family="Times,serif" font-size="14.00">clamp_netlist</text>
</g>
<!-- sg13cmos5l_cm_clamps.clamp_netlist&#45;&gt;sg13cmos5l_cm_clamps.clamp_engine -->
<g id="edge5" class="edge">
<title>sg13cmos5l_cm_clamps.clamp_netlist&#45;&gt;sg13cmos5l_cm_clamps.clamp_engine</title>
<path fill="none" stroke="black" d="M767.09,-157.08C795.7,-153.49 830.88,-149.07 860.95,-145.29"/>
<polygon fill="black" stroke="black" points="870.93,-144.04 861.57,-149.75 865.97,-144.66 861.01,-145.29 861.01,-145.29 861.01,-145.29 865.97,-144.66 860.45,-140.82 870.93,-144.04 870.93,-144.04"/>
</g>
<!-- sg13cmos5l_cm_clamps.extract_clamp_refdata -->
<g id="node10" class="node">
<title>sg13cmos5l_cm_clamps.extract_clamp_refdata</title>
<polygon fill="none" stroke="black" points="799,-128 623,-128 623,-92 799,-92 799,-128"/>
<text text-anchor="start" x="631" y="-106.3" font-family="Times,serif" font-size="14.00">extract_clamp_refdata</text>
</g>
<!-- sg13cmos5l_cm_clamps.extract_clamp_refdata&#45;&gt;sg13cmos5l_cm_clamps.clamp_engine -->
<g id="edge6" class="edge">
<title>sg13cmos5l_cm_clamps.extract_clamp_refdata&#45;&gt;sg13cmos5l_cm_clamps.clamp_engine</title>
<path fill="none" stroke="black" d="M799.14,-120.94C819.76,-123.53 841.41,-126.25 860.92,-128.7"/>
<polygon fill="black" stroke="black" points="870.91,-129.96 860.42,-133.17 865.95,-129.33 860.98,-128.71 860.98,-128.71 860.98,-128.71 865.95,-129.33 861.54,-124.24 870.91,-129.96 870.91,-129.96"/>
</g>
<!-- sg13cmos5l_cm_clamps.gen_clamp -->
<g id="node11" class="node">
<title>sg13cmos5l_cm_clamps.gen_clamp</title>
<polygon fill="none" stroke="black" points="527.5,-209 435.5,-209 435.5,-173 527.5,-173 527.5,-209"/>
<text text-anchor="start" x="443.5" y="-187.3" font-family="Times,serif" font-size="14.00">gen_clamp</text>
</g>
<!-- sg13cmos5l_cm_clamps.gen_clamp&#45;&gt;sg13cmos5l_cm_clamps.clamp_engine -->
<g id="edge7" class="edge">
<title>sg13cmos5l_cm_clamps.gen_clamp&#45;&gt;sg13cmos5l_cm_clamps.clamp_engine</title>
<path fill="none" stroke="black" d="M498.43,-172.81C522.41,-146.98 570.57,-100.82 623,-83 697.06,-57.82 722.33,-67.49 799,-83 829.19,-89.11 861.1,-102.56 885.52,-114.5"/>
<polygon fill="black" stroke="black" points="894.48,-118.99 883.53,-118.54 890.01,-116.75 885.54,-114.52 885.54,-114.52 885.54,-114.52 890.01,-116.75 887.55,-110.49 894.48,-118.99 894.48,-118.99"/>
</g>
<!-- sg13cmos5l_cm_clamps.gen_clamp&#45;&gt;sg13cmos5l_cm_clamps.clamp_klayout -->
<g id="edge8" class="edge">
<title>sg13cmos5l_cm_clamps.gen_clamp&#45;&gt;sg13cmos5l_cm_clamps.clamp_klayout</title>
<path fill="none" stroke="black" d="M527.72,-196.37C560.17,-200.22 604.49,-205.48 641.3,-209.85"/>
<polygon fill="black" stroke="black" points="651.47,-211.05 641.01,-214.34 646.51,-210.46 641.54,-209.88 641.54,-209.88 641.54,-209.88 646.51,-210.46 642.07,-205.41 651.47,-211.05 651.47,-211.05"/>
</g>
<!-- sg13cmos5l_cm_clamps.gen_clamp&#45;&gt;sg13cmos5l_cm_clamps.clamp_netlist -->
<g id="edge9" class="edge">
<title>sg13cmos5l_cm_clamps.gen_clamp&#45;&gt;sg13cmos5l_cm_clamps.clamp_netlist</title>
<path fill="none" stroke="black" d="M527.72,-185.63C561.12,-181.67 607.09,-176.21 644.51,-171.77"/>
<polygon fill="black" stroke="black" points="654.82,-170.55 645.42,-176.2 649.85,-171.14 644.89,-171.73 644.89,-171.73 644.89,-171.73 649.85,-171.14 644.36,-167.26 654.82,-170.55 654.82,-170.55"/>
</g>
<!-- sg13cmos5l_cm_clamps.gen_clamp&#45;&gt;sg13cmos5l_cm_clamps.clamp_refdata -->
<g id="edge10" class="edge">
<title>sg13cmos5l_cm_clamps.gen_clamp&#45;&gt;sg13cmos5l_cm_clamps.clamp_refdata</title>
<path fill="none" stroke="black" d="M527.15,-209.03C554.63,-219.9 590.66,-233.78 623,-245 629.22,-247.16 635.73,-249.33 642.25,-251.45"/>
<polygon fill="black" stroke="black" points="651.8,-254.52 640.9,-255.75 647.04,-252.99 642.28,-251.46 642.28,-251.46 642.28,-251.46 647.04,-252.99 643.65,-247.18 651.8,-254.52 651.8,-254.52"/>
</g>
<!-- sg13cmos5l_cm_clamps.load_clamp_pcells -->
<g id="node12" class="node">
<title>sg13cmos5l_cm_clamps.load_clamp_pcells</title>
<polygon fill="none" stroke="black" points="286,-440 142,-440 142,-404 286,-404 286,-440"/>
<text text-anchor="start" x="150" y="-418.3" font-family="Times,serif" font-size="14.00">load_clamp_pcells</text>
</g>
<!-- sg13cmos5l_cm_clamps.lvs_clamp -->
<g id="node13" class="node">
<title>sg13cmos5l_cm_clamps.lvs_clamp</title>
<polygon fill="none" stroke="black" points="754,-36 668,-36 668,0 754,0 754,-36"/>
<text text-anchor="start" x="676" y="-14.3" font-family="Times,serif" font-size="14.00">lvs_clamp</text>
</g>
<!-- sg13cmos5l_cm_clamps.lvs_clamp&#45;&gt;sg13cmos5l_cm_clamps.clamp_engine -->
<g id="edge11" class="edge">
<title>sg13cmos5l_cm_clamps.lvs_clamp&#45;&gt;sg13cmos5l_cm_clamps.clamp_engine</title>
<path fill="none" stroke="black" d="M754.04,-31.13C768.61,-36.28 784.83,-42.72 799,-50 834,-67.99 870.84,-93.86 895.97,-112.72"/>
<polygon fill="black" stroke="black" points="904.02,-118.82 893.33,-116.37 900.03,-115.8 896.05,-112.78 896.05,-112.78 896.05,-112.78 900.03,-115.8 898.77,-109.2 904.02,-118.82 904.02,-118.82"/>
</g>
<!-- sg13cmos5l_cm_clamps.use_clamp_pcells -->
<g id="node14" class="node">
<title>sg13cmos5l_cm_clamps.use_clamp_pcells</title>
<polygon fill="none" stroke="black" points="283.5,-494 144.5,-494 144.5,-458 283.5,-458 283.5,-494"/>
<text text-anchor="start" x="152.5" y="-472.3" font-family="Times,serif" font-size="14.00">use_clamp_pcells</text>
</g>
<!-- sg13cmos5l_cm_clamps.verify_clamp -->
<g id="node15" class="node">
<title>sg13cmos5l_cm_clamps.verify_clamp</title>
<polygon fill="none" stroke="black" points="535,-290 428,-290 428,-254 535,-254 535,-290"/>
<text text-anchor="start" x="436" y="-268.3" font-family="Times,serif" font-size="14.00">verify_clamp</text>
</g>
<!-- sg13cmos5l_cm_clamps.verify_clamp&#45;&gt;sg13cmos5l_cm_clamps.clamp_engine -->
<g id="edge12" class="edge">
<title>sg13cmos5l_cm_clamps.verify_clamp&#45;&gt;sg13cmos5l_cm_clamps.clamp_engine</title>
<path fill="none" stroke="black" d="M528.41,-290C592.48,-312.11 710.78,-341.73 799,-299 856.75,-271.03 896.32,-202.97 914.9,-164.56"/>
<polygon fill="black" stroke="black" points="919.38,-155.02 919.2,-165.99 917.25,-159.55 915.13,-164.07 915.13,-164.07 915.13,-164.07 917.25,-159.55 911.05,-162.16 919.38,-155.02 919.38,-155.02"/>
</g>
<!-- sg13cmos5l_cm_clamps.verify_clamp&#45;&gt;sg13cmos5l_cm_clamps.clamp_klayout -->
<g id="edge13" class="edge">
<title>sg13cmos5l_cm_clamps.verify_clamp&#45;&gt;sg13cmos5l_cm_clamps.clamp_klayout</title>
<path fill="none" stroke="black" d="M535.26,-259.48C566.8,-251.99 607.23,-242.39 641.24,-234.32"/>
<polygon fill="black" stroke="black" points="651.12,-231.98 642.43,-238.66 646.25,-233.13 641.39,-234.29 641.39,-234.29 641.39,-234.29 646.25,-233.13 640.35,-229.91 651.12,-231.98 651.12,-231.98"/>
</g>
<!-- sg13cmos5l_cm_clamps.verify_clamp&#45;&gt;sg13cmos5l_cm_clamps.clamp_refdata -->
<g id="edge14" class="edge">
<title>sg13cmos5l_cm_clamps.verify_clamp&#45;&gt;sg13cmos5l_cm_clamps.clamp_refdata</title>
<path fill="none" stroke="black" d="M535.26,-272C566.91,-272 607.49,-272 641.58,-272"/>
<polygon fill="black" stroke="black" points="651.93,-272 641.93,-276.5 646.93,-272 641.93,-272 641.93,-272 641.93,-272 646.93,-272 641.93,-267.5 651.93,-272 651.93,-272"/>
</g>
</g>
</svg>
