<svg xmlns="http://www.w3.org/2000/svg" xmlns:xlink="http://www.w3.org/1999/xlink" width="584" height="652" viewBox="228 280 584 652" version="1.1" xmlns:c2pa="http://c2pa.org/manifest"><metadata><c2pa:manifest>AAAWgmp1bWIAAAAeanVtZGMycGEAEQAQgAAAqgA4m3EDYzJwYQAAABZcanVtYgAAAEdqdW1kYzJtYQARABCAAACqADibcQN1cm46YzJwYTowY2NlNGQyOS1mODk2LTRmZWMtYmYyNi05ZGZmNjA3OWRiN2UAAAADl2p1bWIAAAApanVtZGMyYXMAEQAQgAAAqgA4m3EDYzJwYS5hc3NlcnRpb25zAAAAALxqdW1iAAAARGp1bWRjYm9yABEAEIAAAKoAOJtxE2MycGEuaW5ncmVkaWVudC52MwAAAAAYYzJzaM9WA1ZKKdwt8101LxnUC3UAAABwY2JvcqNpZGM6Zm9ybWF0bWltYWdlL3N2Zyt4bWxqaW5zdGFuY2VJRHgseG1wOmlpZDo1ZmMzMTk2OS1mYzMwLTQ4ZjMtODc0MC0yYjZmZWZlMjZlN2RscmVsYXRpb25zaGlwaHBhcmVudE9mAAAB4mp1bWIAAABBanVtZGNib3IAEQAQgAAAqgA4m3ETYzJwYS5hY3Rpb25zLnYyAAAAABhjMnNoyBetlqJtXtQefSgb+hKHKgAAAZljYm9yomdhY3Rpb25zgqJmYWN0aW9ua2MycGEub3BlbmVkanBhcmFtZXRlcnOha2luZ3JlZGllbnRzgaJjdXJseC1zZWxmI2p1bWJmPWMycGEuYXNzZXJ0aW9ucy9jMnBhLmluZ3JlZGllbnQudjNkaGFzaFggOw9GI5B31M9coHKysUEGhyVcgaF83Brhy4cEtTFHP5qkZmFjdGlvbngdY29tLmFudGhyb3BpYy5jbGF1ZGUucHJvdmlkZWRqcGFyYW1ldGVyc6F4H2NvbS5hbnRocm9waWMub3JpZ2luLWNvbmZpZGVuY2VndW5rbm93bmtkZXNjcmlwdGlvbnhmQ2xhdWRlIHByb3ZpZGVkIHRoaXMgZmlsZSBhdCB0aGUgcmVxdWVzdCBvZiBhIHVzZXIgYW5kIG1heSBoYXZlIGNyZWF0ZWQgb3IgbW9kaWZpZWQgdGhlIGZpbGUgY29udGVudHMubXNvZnR3YXJlQWdlbnShZG5hbWVmQ2xhdWRlcmFsbEFjdGlvbnNJbmNsdWRlZPUAAADIanVtYgAAAEBqdW1kY2JvcgARABCAAACqADibcRNjMnBhLmhhc2guZGF0YQAAAAAYYzJzaHwF6NfuipDT1zVnRYZodZkAAACAY2JvcqVjYWxnZnNoYTI1NmNwYWRNAAAAAAAAAAAAAAAAAGRoYXNoWCC3brCaQjtLtaTA8ATtoYbagKMAJbKvF+8fst8EzRYiPmRuYW1lbmp1bWJmIG1hbmlmZXN0amV4Y2x1c2lvbnOBomVzdGFydBjTZmxlbmd0aBkeBAAAAj5qdW1iAAAAJ2p1bWRjMmNsABEAEIAAAKoAOJtxA2MycGEuY2xhaW0udjIAAAACD2Nib3KlY2FsZ2ZzaGEyNTZpc2lnbmF0dXJleE1zZWxmI2p1bWJmPS9jMnBhL3VybjpjMnBhOjBjY2U0ZDI5LWY4OTYtNGZlYy1iZjI2LTlkZmY2MDc5ZGI3ZS9jMnBhLnNpZ25hdHVyZWppbnN0YW5jZUlEeCx4bXA6aWlkOjg3NTU0NjA5LTQ1ZGItNGM4Yi05ZGMxLWEyZGQ3MGVjMTI5MnJjcmVhdGVkX2Fzc2VydGlvbnODomN1cmx4LXNlbGYjanVtYmY9YzJwYS5hc3NlcnRpb25zL2MycGEuaW5ncmVkaWVudC52M2RoYXNoWCA7D0YjkHfUz1ygcrKxQQaHJVyBoXzcGuHLhwS1MUc/mqJjdXJseCpzZWxmI2p1bWJmPWMycGEuYXNzZXJ0aW9ucy9jMnBhLmFjdGlvbnMudjJkaGFzaFggCSdV+Js0qqVRcFWxkRvXGVVrBw0dW2VipuUsst8J6HGiY3VybHgpc2VsZiNqdW1iZj1jMnBhLmFzc2VydGlvbnMvYzJwYS5oYXNoLmRhdGFkaGFzaFgggebKb+MymWK3KcW49bnQOS6U7UBN1pje227Z8fML1HZ0Y2xhaW1fZ2VuZXJhdG9yX2luZm+jZG5hbWVvQW50aHJvcGljIEZpbGVzZ3ZlcnNpb25lMS4wLjBrc3BlY1ZlcnNpb25lMi40LjAAABA4anVtYgAAAChqdW1kYzJjcwARABCAAACqADibcQNjMnBhLnNpZ25hdHVyZQAAABAIY2JvctKEWQISogEmGCFZAgowggIGMIIBjaADAgECAhRA5aAK7sI50L64g/oGQgU9Z1UTADAKBggqhkjOPQQDAzBJMRcwFQYDVQQKEw5BbnRocm9waWMsIFBCQzEuMCwGA1UEAxMlQW50aHJvcGljIENvbnRlbnQgQ3JlZGVudGlhbHMgUm9vdCBDQTAeFw0yNjA4MDcxODQzNTZaFw0yODA4MDYxOTQzNTZaMEQxFzAVBgNVBAoTDkFudGhyb3BpYywgUEJDMSkwJwYDVQQDEyBBbnRocm9waWMgQ2xhdWRlIENvbnRlbnQgU2lnbmluZzBZMBMGByqGSM49AgEGCCqGSM49AwEHA0IABJh6CmvLUBgFFNU0vUKlOVtE6djd17L5SuwX0LemFisBM3dkd/3cyjxFA3Qo5S46fX0/ihY0VZ7mfb9KF703t5OjWDBWMA4GA1UdDwEB/wQEAwIHgDAVBgNVHSUEDjAMBgorBgEEAYPoXgIBMAwGA1UdEwEB/wQCMAAwHwYDVR0jBBgwFoAUzlHiBIFOZFsj+OPEz5o+nMHXXMIwCgYIKoZIzj0EAwMDZwAwZAIwMXMdFJ4BetLLVY7ORuE9noqbbAZOZn/aArXyTwFAZfKrPzxF2vPoJNf1+UCdg1XGAjBwX1zd9WGqYkqmL5SFqw1QySjr1zJfpJM9+1rdDwSPLMOPOjKuiXjoU/pUUeG9RwmhY3BhZFkNngAAAAAAAAAAAAAAAAAAAAAAAAAAAAAAAAAAAAAAAAAAAAAAAAAAAAAAAAAAAAAAAAAAAAAAAAAAAAAAAAAAAAAAAAAAAAAAAAAAAAAAAAAAAAAAAAAAAAAAAAAAAAAAAAAAAAAAAAAAAAAAAAAAAAAAAAAAAAAAAAAAAAAAAAAAAAAAAAAAAAAAAAAAAAAAAAAAAAAAAAAAAAAAAAAAAAAAAAAAAAAAAAAAAAAAAAAAAAAAAAAAAAAAAAAAAAAAAAAAAAAAAAAAAAAAAAAAAAAAAAAAAAAAAAAAAAAAAAAAAAAAAAAAAAAAAAAAAAAAAAAAAAAAAAAAAAAAAAAAAAAAAAAAAAAAAAAAAAAAAAAAAAAAAAAAAAAAAAAAAAAAAAAAAAAAAAAAAAAAAAAAAAAAAAAAAAAAAAAAAAAAAAAAAAAAAAAAAAAAAAAAAAAAAAAAAAAAAAAAAAAAAAAAAAAAAAAAAAAAAAAAAAAAAAAAAAAAAAAAAAAAAAAAAAAAAAAAAAAAAAAAAAAAAAAAAAAAAAAAAAAAAAAAAAAAAAAAAAAAAAAAAAAAAAAAAAAAAAAAAAAAAAAAAAAAAAAAAAAAAAAAAAAAAAAAAAAAAAAAAAAAAAAAAAAAAAAAAAAAAAAAAAAAAAAAAAAAAAAAAAAAAAAAAAAAAAAAAAAAAAAAAAAAAAAAAAAAAAAAAAAAAAAAAAAAAAAAAAAAAAAAAAAAAAAAAAAAAAAAAAAAAAAAAAAAAAAAAAAAAAAAAAAAAAAAAAAAAAAAAAAAAAAAAAAAAAAAAAAAAAAAAAAAAAAAAAAAAAAAAAAAAAAAAAAAAAAAAAAAAAAAAAAAAAAAAAAAAAAAAAAAAAAAAAAAAAAAAAAAAAAAAAAAAAAAAAAAAAAAAAAAAAAAAAAAAAAAAAAAAAAAAAAAAAAAAAAAAAAAAAAAAAAAAAAAAAAAAAAAAAAAAAAAAAAAAAAAAAAAAAAAAAAAAAAAAAAAAAAAAAAAAAAAAAAAAAAAAAAAAAAAAAAAAAAAAAAAAAAAAAAAAAAAAAAAAAAAAAAAAAAAAAAAAAAAAAAAAAAAAAAAAAAAAAAAAAAAAAAAAAAAAAAAAAAAAAAAAAAAAAAAAAAAAAAAAAAAAAAAAAAAAAAAAAAAAAAAAAAAAAAAAAAAAAAAAAAAAAAAAAAAAAAAAAAAAAAAAAAAAAAAAAAAAAAAAAAAAAAAAAAAAAAAAAAAAAAAAAAAAAAAAAAAAAAAAAAAAAAAAAAAAAAAAAAAAAAAAAAAAAAAAAAAAAAAAAAAAAAAAAAAAAAAAAAAAAAAAAAAAAAAAAAAAAAAAAAAAAAAAAAAAAAAAAAAAAAAAAAAAAAAAAAAAAAAAAAAAAAAAAAAAAAAAAAAAAAAAAAAAAAAAAAAAAAAAAAAAAAAAAAAAAAAAAAAAAAAAAAAAAAAAAAAAAAAAAAAAAAAAAAAAAAAAAAAAAAAAAAAAAAAAAAAAAAAAAAAAAAAAAAAAAAAAAAAAAAAAAAAAAAAAAAAAAAAAAAAAAAAAAAAAAAAAAAAAAAAAAAAAAAAAAAAAAAAAAAAAAAAAAAAAAAAAAAAAAAAAAAAAAAAAAAAAAAAAAAAAAAAAAAAAAAAAAAAAAAAAAAAAAAAAAAAAAAAAAAAAAAAAAAAAAAAAAAAAAAAAAAAAAAAAAAAAAAAAAAAAAAAAAAAAAAAAAAAAAAAAAAAAAAAAAAAAAAAAAAAAAAAAAAAAAAAAAAAAAAAAAAAAAAAAAAAAAAAAAAAAAAAAAAAAAAAAAAAAAAAAAAAAAAAAAAAAAAAAAAAAAAAAAAAAAAAAAAAAAAAAAAAAAAAAAAAAAAAAAAAAAAAAAAAAAAAAAAAAAAAAAAAAAAAAAAAAAAAAAAAAAAAAAAAAAAAAAAAAAAAAAAAAAAAAAAAAAAAAAAAAAAAAAAAAAAAAAAAAAAAAAAAAAAAAAAAAAAAAAAAAAAAAAAAAAAAAAAAAAAAAAAAAAAAAAAAAAAAAAAAAAAAAAAAAAAAAAAAAAAAAAAAAAAAAAAAAAAAAAAAAAAAAAAAAAAAAAAAAAAAAAAAAAAAAAAAAAAAAAAAAAAAAAAAAAAAAAAAAAAAAAAAAAAAAAAAAAAAAAAAAAAAAAAAAAAAAAAAAAAAAAAAAAAAAAAAAAAAAAAAAAAAAAAAAAAAAAAAAAAAAAAAAAAAAAAAAAAAAAAAAAAAAAAAAAAAAAAAAAAAAAAAAAAAAAAAAAAAAAAAAAAAAAAAAAAAAAAAAAAAAAAAAAAAAAAAAAAAAAAAAAAAAAAAAAAAAAAAAAAAAAAAAAAAAAAAAAAAAAAAAAAAAAAAAAAAAAAAAAAAAAAAAAAAAAAAAAAAAAAAAAAAAAAAAAAAAAAAAAAAAAAAAAAAAAAAAAAAAAAAAAAAAAAAAAAAAAAAAAAAAAAAAAAAAAAAAAAAAAAAAAAAAAAAAAAAAAAAAAAAAAAAAAAAAAAAAAAAAAAAAAAAAAAAAAAAAAAAAAAAAAAAAAAAAAAAAAAAAAAAAAAAAAAAAAAAAAAAAAAAAAAAAAAAAAAAAAAAAAAAAAAAAAAAAAAAAAAAAAAAAAAAAAAAAAAAAAAAAAAAAAAAAAAAAAAAAAAAAAAAAAAAAAAAAAAAAAAAAAAAAAAAAAAAAAAAAAAAAAAAAAAAAAAAAAAAAAAAAAAAAAAAAAAAAAAAAAAAAAAAAAAAAAAAAAAAAAAAAAAAAAAAAAAAAAAAAAAAAAAAAAAAAAAAAAAAAAAAAAAAAAAAAAAAAAAAAAAAAAAAAAAAAAAAAAAAAAAAAAAAAAAAAAAAAAAAAAAAAAAAAAAAAAAAAAAAAAAAAAAAAAAAAAAAAAAAAAAAAAAAAAAAAAAAAAAAAAAAAAAAAAAAAAAAAAAAAAAAAAAAAAAAAAAAAAAAAAAAAAAAAAAAAAAAAAAAAAAAAAAAAAAAAAAAAAAAAAAAAAAAAAAAAAAAAAAAAAAAAAAAAAAAAAAAAAAAAAAAAAAAAAAAAAAAAAAAAAAAAAAAAAAAAAAAAAAAAAAAAAAAAAAAAAAAAAAAAAAAAAAAAAAAAAAAAAAAAAAAAAAAAAAAAAAAAAAAAAAAAAAAAAAAAAAAAAAAAAAAAAAAAAAAAAAAAAAAAAAAAAAAAAAAAAAAAAAAAAAAAAAAAAAAAAAAAAAAAAAAAAAAAAAAAAAAAAAAAAAAAAAAAAAAAAAAAAAAAAAAAAAAAAAAAAAAAAAAAAAAAAAAAAAAAAAAAAAAAAAAAAAAAAAAAAAAAAAAAAAAAAAAAAAAAAAAAAAAAAAAAAAAAAAAAAAAAAAAAAAAAAAAAAAAAAAAAAAAAAAAAAAAAAAAAAAAAAAAAAAAAAAAAAAAAAAAAAAAAAAAAAAAAAAAAAAAAAAAAAAAAAAAAAAAAAAAAAAAAAAAAAAAAAAAAAAAAAAAAAAAAAAAAAAAAAAAAAAAAAAAAAAAAAAAAAAAAAAAAAAAAAAAAAAAAAAAAAAAAAAAAAAAAAAAAAAAAAAAAAAAAAAAAAAAAAAAAAAAAAAAAAAAAAAAAAAAAAAAAAAAAAAAAAAAAAAAAAAAAAAAAAAAAAAAAAAAAAAAAAAAAAAAAAAAAAAAAAAAAAAAAAAAAAAAAAAAAAAAAAAAAAAAAAAAAAAAAAAAAAAAAAAAAAAAAAAAAAAAAAAAAAAAAAAAAAAAAAAAAAAAAAAAAAAAAAAAAAAAAAAAAAAAAAAAAAAAAAAAAAAAAAAAAAAAAAAAAAAAAAAAAAAAAAAAAAAAAAAAAAAAAAAAAAAAAAAAAAAAAAAAAAAAAAAAAAAAAAAAAAAAAAAAAAAAAAAAAAAAAAAAAAAAAAAAAAAAAAAAAAAAAAAAAAAAAAAAAAAAAAAAAAAAAAAAAAAAAAAAAAAAAAAAAAAAAAAAAAAAAAAAAAAAAAAAAAAAAAAAAAAAAAAAAAAAAAAAAAAAAAAAAAAAAAAAAAAAAAAAAAAAAAAAAAAAAAAAAAAAAAAAAAAAAAAAAAAAAAAAAAAAAAAAAAAAAAAAAAAAAAAAAAAAAAAAAAAAAAAAAAAAAAAAAAAAAAAAAAAAAAAAAAAAAAAAAAAAAAAAAAAAAAAAAAAAAAAAAAAAAAAAAAAAAAAAAAAAAAAAAAAAAAAAAAAAAAAAAAAAAAAAAAAAAAAAAAAAAAAAAAAAAAAAAAAAAAAAAAAAAAAAAAAAAAAAAAAAAAAAAAAAAAAAAAAAAAAAAAAAAAAAAAAAAAAAAAAAAAAAAAAAAAAAAAAAAAAAAAAAAAAAAAAAAAAAAAAAAAAAAAAAAAAAAAAAAAAAAAAAAAAAAAAAAAAAAAAAAAAAAAAAAAAAAAAAAAAAAAAAAAAAAAAAAAAAAAAAAAAAAAAAAAAAAAAAAAAAAAAAAAAAAAAAAAAAAAAAAAAAAAAAAAAAAAAAAAAAAAAAAAAAAAAAAAAAAAAAAAAAAAAAAAAAAAAAAAAAAAAAAAAAAAAAAAAAAAAAAAAAAAAAAAAAAAAAAAAAAAAAAAAAAAAAAAAAAAAAAAAAAAAAAAAAAAAAAAAAAAAAAAAAAAAAAAAAAAAAAAAAAAAAAAAAAAAAAAAAAAAAAAAAAAAAAAAAAAAAAAAAAAAAAAAAAAAAAAAAAAAAAPZYQEexTpw1QdXIkaYWFdU/ojdD0lZ3q4HDqxrH77CczP7HTA5JwBE8KoQh/ClNKKcqP4C3qlnDooRgljdgvf7zmU8=</c2pa:manifest></metadata>
<style type="text/css">
.l0{
 fill: #ffffff;
  stroke: #ffffff;
  stroke-linecap:round;
  stroke-linejoin:round;
  stroke-width: 2;
}
.l1{
 fill: #000000;
  stroke: #000000;
  stroke-linecap:round;
  stroke-linejoin:round;
  stroke-width: 2;
}
.l2{
  fill: none;
  stroke: #808080;
  stroke-linecap:round;
  stroke-linejoin:round;
  stroke-width: 2;
}
.l3{
 fill: #000000; fill-opacity: 0.5;
  stroke: #000000;
  stroke-linecap:round;
  stroke-linejoin:round;
  stroke-width: 2;
}
.l4{
 fill: #000000;
  stroke: #000000;
  stroke-linecap:round;
  stroke-linejoin:round;
  stroke-width: 2;
}
.l5{
 fill: #000000;
  stroke: #000000;
  stroke-linecap:round;
  stroke-linejoin:round;
  stroke-width: 2;
}
.l6{
 fill: #000000; fill-opacity: 0.5;
  stroke: #000000;
  stroke-linecap:round;
  stroke-linejoin:round;
  stroke-width: 2;
}
.l7{
 fill: #ffffff; fill-opacity: 0.5;
  stroke: #ffffff;
  stroke-linecap:round;
  stroke-linejoin:round;
  stroke-width: 2;
}
.l8{
 fill: #000000; fill-opacity: 0.5;
  stroke: #000000;
  stroke-linecap:round;
  stroke-linejoin:round;
  stroke-width: 2;
}
.l9{
 fill: #000000; fill-opacity: 0.5;
  stroke: #000000;
  stroke-linecap:round;
  stroke-linejoin:round;
  stroke-width: 2;
}
.l10{
 fill: #d55e00;
  stroke: #d55e00;
  stroke-linecap:round;
  stroke-linejoin:round;
  stroke-width: 2;
}
.l11{
 fill: #000000; fill-opacity: 0.5;
  stroke: #000000;
  stroke-linecap:round;
  stroke-linejoin:round;
  stroke-width: 2;
}
.l12{
 fill: #000000; fill-opacity: 0.5;
  stroke: #000000;
  stroke-linecap:round;
  stroke-linejoin:round;
  stroke-width: 2;
}
.l13{
 fill: #000000; fill-opacity: 0.5;
  stroke: #000000;
  stroke-linecap:round;
  stroke-linejoin:round;
  stroke-width: 2;
}
.l14{
  fill: none;
  stroke: #000000;
  stroke-linecap:round;
  stroke-linejoin:round;
  stroke-width: 2;
}
.l15{
 fill: #000000; fill-opacity: 0.5;
  stroke: #000000;
  stroke-linecap:round;
  stroke-linejoin:round;
  stroke-width: 2;
}
.l16{
 fill: #000000; fill-opacity: 0.5;
  stroke: #000000;
  stroke-linecap:round;
  stroke-linejoin:round;
  stroke-width: 2;
}
.l17{
  fill: none;
  stroke: #000000;
  stroke-linecap:round;
  stroke-linejoin:round;
  stroke-width: 2;
}
.l18{
 fill: #000000; fill-opacity: 0.5;
  stroke: #000000;
  stroke-linecap:round;
  stroke-linejoin:round;
  stroke-width: 2;
}
.l19{
  fill: none;
  stroke: #000000;
  stroke-linecap:round;
  stroke-linejoin:round;
  stroke-width: 2;
}
.l20{
  fill: none;
  stroke: #000000;
  stroke-linecap:round;
  stroke-linejoin:round;
  stroke-width: 2;
}
.l21{
  fill: none;
  stroke: #000000;
  stroke-linecap:round;
  stroke-linejoin:round;
  stroke-width: 2;
}
text {font-family: "Liberation Sans", Arial, Helvetica, sans-serif;}
</style>
<rect class="l0" x="0" y="0" width="1190" height="1200"/>
<text fill="#000000"  xml:space="preserve" font-size="20.8" transform="translate(300, 318.886)" >unit_w: well-input PMOS pair, gates at vss</text>
<text fill="#000000"  xml:space="preserve" font-size="13" transform="translate(300, 351.804)" >gp drains to y, gn drains to x; x and y go to the folding nodes</text>
<text fill="#000000"  xml:space="preserve" font-size="17.16" transform="translate(780, 786.831)" >x</text>
<text fill="#000000"  xml:space="preserve" font-size="17.16" transform="translate(780, 826.831)" >y</text>
<text fill="#000000"  xml:space="preserve" font-size="17.16" transform="translate(264.42, 726.831)" >gp</text>
<text fill="#000000"  xml:space="preserve" font-size="17.16" transform="translate(264.42, 766.831)" >gn</text>
<text fill="#000000"  xml:space="preserve" font-size="17.16" transform="translate(254.911, 406.206)" >vdd</text>
<text fill="#000000"  xml:space="preserve" font-size="17.16" transform="translate(254.911, 906.206)" >vss</text>
<text fill="#000000"  xml:space="preserve" font-size="17.16" transform="translate(256.005, 526.831)" >vbp</text>
<text fill="#000000"  xml:space="preserve" font-size="14.04" transform="translate(592.5, 575.394)" >s</text>
<text fill="#000000"  xml:space="preserve" font-size="10.4" transform="translate(529.9, 439.443)" >T</text>
<text fill="#000000"  xml:space="preserve" font-size="10.4" transform="translate(561.25, 466.943)" >ng=2</text>
<text fill="#000000"  xml:space="preserve" font-size="10.4" transform="translate(561.25, 454.443)" >l=2u</text>
<text fill="#000000"  xml:space="preserve" font-size="10.4" transform="translate(561.25, 443.193)" >w=20u</text>
<text fill="#000000"  xml:space="preserve" font-size="10.4" transform="translate(434.8, 639.443)" >Ma</text>
<text fill="#000000"  xml:space="preserve" font-size="10.4" transform="translate(471.25, 654.443)" >l=lwi</text>
<text fill="#000000"  xml:space="preserve" font-size="10.4" transform="translate(471.25, 643.193)" >w=wwi</text>
<text fill="#000000"  xml:space="preserve" font-size="10.4" transform="translate(655, 639.443)" >Mb</text>
<text fill="#000000"  xml:space="preserve" font-size="10.4" transform="translate(603.25, 654.443)" >l=lwi</text>
<text fill="#000000"  xml:space="preserve" font-size="10.4" transform="translate(603.25, 643.193)" >w=wwi</text>
<path class="l4" d="M537.5 437.5L537.5 482.5"/>
<path class="l4" d="M550 430L550 442.5"/>
<path class="l4" d="M550 477.5L550 490"/>
<path class="l4" d="M532.5 445L532.5 475"/>
<path class="l4" d="M537.5 477.5L550 477.5"/>
<path class="l4" d="M537.5 442.5L550 442.5"/>
<path class="l4" d="M510 460L532 460"/>
<path class="l4" d="M542.5 440L537.5 442.5L542.5 445L542.5 440"/>
<path class="l4" d="M531 444L533 444L533 476L531 476L531 444z"/>
<path class="l4" d="M447.5 637.5L447.5 682.5"/>
<path class="l4" d="M460 630L460 642.5"/>
<path class="l4" d="M460 677.5L460 690"/>
<path class="l4" d="M442.5 645L442.5 675"/>
<path class="l4" d="M447.5 677.5L460 677.5"/>
<path class="l4" d="M447.5 642.5L460 642.5"/>
<path class="l4" d="M420 660L442 660"/>
<path class="l4" d="M452.5 640L447.5 642.5L452.5 645L452.5 640"/>
<path class="l4" d="M441 644L443 644L443 676L441 676L441 644z"/>
<path class="l4" d="M652.5 637.5L652.5 682.5"/>
<path class="l4" d="M640 630L640 642.5"/>
<path class="l4" d="M640 677.5L640 690"/>
<path class="l4" d="M657.5 645L657.5 675"/>
<path class="l4" d="M640 677.5L652.5 677.5"/>
<path class="l4" d="M640 642.5L652.5 642.5"/>
<path class="l4" d="M658 660L680 660"/>
<path class="l4" d="M647.5 640L652.5 642.5L647.5 645L647.5 640"/>
<path class="l4" d="M657 644L659 644L659 676L657 676L657 644z"/>
<path class="l5" d="M760 780L768.75 780"/>
<path class="l5" d="M777.5 780L773.75 775L765 775L768.75 780L765 785L773.75 785L777.5 780"/>
<path class="l5" d="M760 820L768.75 820"/>
<path class="l5" d="M777.5 820L773.75 815L765 815L768.75 820L765 825L773.75 825L777.5 820"/>
<path class="l5" d="M295 720L300 720"/>
<path class="l5" d="M295 720L291.25 715L282.5 715L286.25 720L282.5 725L291.25 725L295 720"/>
<path class="l5" d="M295 760L300 760"/>
<path class="l5" d="M295 760L291.25 755L282.5 755L286.25 760L282.5 765L291.25 765L295 760"/>
<path class="l5" d="M296.875 400L300 400"/>
<path class="l5" d="M286.25 405L282.5 400L286.25 395L293.125 395L296.875 400L293.125 405L286.25 405"/>
<path class="l5" d="M296.875 900L300 900"/>
<path class="l5" d="M286.25 905L282.5 900L286.25 895L293.125 895L296.875 900L293.125 905L286.25 905"/>
<path class="l5" d="M295 520L300 520"/>
<path class="l5" d="M295 520L291.25 515L282.5 515L286.25 520L282.5 525L291.25 525L295 520"/>
<path class="l5" d="M545 457.5L550 460L545 462.5L545 457.5"/>
<path class="l5" d="M455 657.5L460 660L455 662.5L455 657.5"/>
<path class="l5" d="M645 657.5L640 660L645 662.5L645 657.5"/>
<path class="l1" d="M300 400L550 400"/>
<path class="l1" d="M550 400L550 430"/>
<path class="l1" d="M550 460L570 460"/>
<path class="l1" d="M570 400L570 460"/>
<path class="l1" d="M300 520L490 520"/>
<path class="l1" d="M490 460L490 520"/>
<path class="l1" d="M490 460L510 460"/>
<path class="l1" d="M550 490L550 580"/>
<path class="l1" d="M460 580L550 580"/>
<path class="l1" d="M460 580L460 630"/>
<path class="l1" d="M640 580L640 630"/>
<path class="l1" d="M460 690L460 820"/>
<path class="l1" d="M460 820L760 820"/>
<path class="l1" d="M640 690L640 780"/>
<path class="l1" d="M640 780L760 780"/>
<path class="l1" d="M460 660L500 660"/>
<path class="l1" d="M500 660L500 720"/>
<path class="l1" d="M300 720L500 720"/>
<path class="l1" d="M600 660L640 660"/>
<path class="l1" d="M600 660L600 760"/>
<path class="l1" d="M300 760L600 760"/>
<path class="l1" d="M400 660L420 660"/>
<path class="l1" d="M400 660L400 900"/>
<path class="l1" d="M680 660L700 660"/>
<path class="l1" d="M700 660L700 900"/>
<path class="l1" d="M300 900L400 900"/>
<path class="l1" d="M550 400L570 400"/>
<path class="l1" d="M550 580L640 580"/>
<path class="l1" d="M400 900L700 900"/>
<circle class="l1" cx="550" cy="580" r="4"/>
<circle class="l1" cx="550" cy="400" r="4"/>
<circle class="l1" cx="400" cy="900" r="4"/>
<circle class="l1" cx="550" cy="580" r="4"/>
<circle class="l1" cx="550" cy="580" r="4"/>
<circle class="l1" cx="550" cy="400" r="4"/>
<circle class="l1" cx="550" cy="400" r="4"/>
<circle class="l1" cx="400" cy="900" r="4"/>
<circle class="l1" cx="400" cy="900" r="4"/>
</svg>
