<svg xmlns="http://www.w3.org/2000/svg" width="620" height="380" viewBox="0 0 620 380"><rect width="100%" height="100%" fill="white"/><line x1="560.0" y1="190.0" x2="560.0" y2="190.0" stroke="#111" stroke-width="2"/><line x1="112.0" y1="190.0" x2="560.0" y2="190.0" stroke="#111" stroke-width="2"/><circle cx="560.0" cy="190.0" r="3" fill="#111"/><line x1="272.0" y1="190.0" x2="560.0" y2="190.0" stroke="#111" stroke-width="2"/><circle cx="560.0" cy="190.0" r="3" fill="#111"/><line x1="432.0" y1="190.0" x2="560.0" y2="190.0" stroke="#111" stroke-width="2"/><circle cx="560.0" cy="190.0" r="3" fill="#111"/><line x1="310.0" y1="50.0" x2="310.0" y2="222.0" stroke="#111" stroke-width="2"/><line x1="150.0" y1="158.0" x2="310.0" y2="158.0" stroke="#111" stroke-width="2"/><circle cx="310.0" cy="158.0" r="3" fill="#111"/><line x1="166.0" y1="190.0" x2="310.0" y2="190.0" stroke="#111" stroke-width="2"/><circle cx="310.0" cy="190.0" r="3" fill="#111"/><line x1="326.0" y1="190.0" x2="310.0" y2="190.0" stroke="#111" stroke-width="2"/><circle cx="310.0" cy="190.0" r="3" fill="#111"/><line x1="470.0" y1="158.0" x2="310.0" y2="158.0" stroke="#111" stroke-width="2"/><circle cx="310.0" cy="158.0" r="3" fill="#111"/><line x1="486.0" y1="190.0" x2="310.0" y2="190.0" stroke="#111" stroke-width="2"/><circle cx="310.0" cy="190.0" r="3" fill="#111"/><line x1="560.0" y1="90.0" x2="310.0" y2="90.0" stroke="#111" stroke-width="2"/><circle cx="310.0" cy="90.0" r="3" fill="#111"/><line x1="310.0" y1="158.0" x2="310.0" y2="330.0" stroke="#111" stroke-width="2"/><line x1="150.0" y1="222.0" x2="310.0" y2="222.0" stroke="#111" stroke-width="2"/><circle cx="310.0" cy="222.0" r="3" fill="#111"/><line x1="470.0" y1="222.0" x2="310.0" y2="222.0" stroke="#111" stroke-width="2"/><circle cx="310.0" cy="222.0" r="3" fill="#111"/><line x1="310" y1="50" x2="310" y2="40" stroke="#111" stroke-width="2"/><line x1="296" y1="40" x2="324" y2="40" stroke="#111" stroke-width="2"/><text x="310" y="34" font-size="12" font-family="Georgia,serif" font-weight="bold" text-anchor="middle">IOVSS</text><line x1="310" y1="330" x2="310" y2="320" stroke="#111" stroke-width="2"/><line x1="296" y1="320" x2="324" y2="320" stroke="#111" stroke-width="2"/><text x="310" y="314" font-size="12" font-family="Georgia,serif" font-weight="bold" text-anchor="middle">PAD</text><line x1="112.0" y1="190.0" x2="139.0" y2="190.0" stroke="#111" stroke-width="2"/><line x1="139.0" y1="174.0" x2="139.0" y2="206.0" stroke="#111" stroke-width="2"/><line x1="146.0" y1="174.0" x2="146.0" y2="183.0" stroke="#111" stroke-width="2"/><line x1="146.0" y1="185.5" x2="146.0" y2="194.5" stroke="#111" stroke-width="2"/><line x1="146.0" y1="197.0" x2="146.0" y2="206.0" stroke="#111" stroke-width="2"/><line x1="146.0" y1="174.0" x2="150.0" y2="174.0" stroke="#111" stroke-width="2"/><line x1="150.0" y1="174.0" x2="150.0" y2="158.0" stroke="#111" stroke-width="2"/><line x1="146.0" y1="206.0" x2="150.0" y2="206.0" stroke="#111" stroke-width="2"/><line x1="150.0" y1="206.0" x2="150.0" y2="222.0" stroke="#111" stroke-width="2"/><line x1="146.0" y1="190.0" x2="166.0" y2="190.0" stroke="#111" stroke-width="2"/><polygon points="146.5,190.0 155.5,186.0 155.5,194.0" fill="#111"/><text x="170.0" y="194.0" font-size="13" font-family="Georgia,serif" font-style="italic" text-anchor="start">g0</text><line x1="272.0" y1="190.0" x2="299.0" y2="190.0" stroke="#111" stroke-width="2"/><line x1="299.0" y1="174.0" x2="299.0" y2="206.0" stroke="#111" stroke-width="2"/><line x1="306.0" y1="174.0" x2="306.0" y2="183.0" stroke="#111" stroke-width="2"/><line x1="306.0" y1="185.5" x2="306.0" y2="194.5" stroke="#111" stroke-width="2"/><line x1="306.0" y1="197.0" x2="306.0" y2="206.0" stroke="#111" stroke-width="2"/><line x1="306.0" y1="174.0" x2="310.0" y2="174.0" stroke="#111" stroke-width="2"/><line x1="310.0" y1="174.0" x2="310.0" y2="158.0" stroke="#111" stroke-width="2"/><line x1="306.0" y1="206.0" x2="310.0" y2="206.0" stroke="#111" stroke-width="2"/><line x1="310.0" y1="206.0" x2="310.0" y2="222.0" stroke="#111" stroke-width="2"/><line x1="306.0" y1="190.0" x2="326.0" y2="190.0" stroke="#111" stroke-width="2"/><polygon points="306.5,190.0 315.5,186.0 315.5,194.0" fill="#111"/><text x="330.0" y="194.0" font-size="13" font-family="Georgia,serif" font-style="italic" text-anchor="start">g1</text><line x1="432.0" y1="190.0" x2="459.0" y2="190.0" stroke="#111" stroke-width="2"/><line x1="459.0" y1="174.0" x2="459.0" y2="206.0" stroke="#111" stroke-width="2"/><line x1="466.0" y1="174.0" x2="466.0" y2="183.0" stroke="#111" stroke-width="2"/><line x1="466.0" y1="185.5" x2="466.0" y2="194.5" stroke="#111" stroke-width="2"/><line x1="466.0" y1="197.0" x2="466.0" y2="206.0" stroke="#111" stroke-width="2"/><line x1="466.0" y1="174.0" x2="470.0" y2="174.0" stroke="#111" stroke-width="2"/><line x1="470.0" y1="174.0" x2="470.0" y2="158.0" stroke="#111" stroke-width="2"/><line x1="466.0" y1="206.0" x2="470.0" y2="206.0" stroke="#111" stroke-width="2"/><line x1="470.0" y1="206.0" x2="470.0" y2="222.0" stroke="#111" stroke-width="2"/><line x1="466.0" y1="190.0" x2="486.0" y2="190.0" stroke="#111" stroke-width="2"/><polygon points="466.5,190.0 475.5,186.0 475.5,194.0" fill="#111"/><text x="490.0" y="194.0" font-size="13" font-family="Georgia,serif" font-style="italic" text-anchor="start">g2</text><polyline points="560.0,90.0 554.0,104.3 566.0,118.6 554.0,132.9 566.0,147.1 554.0,161.4 566.0,175.7 560.0,190.0" fill="none" stroke="#111" stroke-width="2"/><text x="545.0" y="144.0" font-size="12" font-family="Georgia,serif" font-style="italic" text-anchor="middle">Roff</text></svg>